<svg xmlns="http://www.w3.org/2000/svg" xmlns:xlink="http://www.w3.org/1999/xlink" fill="none" version="1.1" width="48" height="48" viewBox="0 0 48 48"><defs><clipPath id="master_svg0_832_00261"><rect x="0" y="0" width="48" height="48" rx="0"/></clipPath></defs><g clip-path="url(#master_svg0_832_00261)"><g><path d="M26,10C26,8.89543,25.10457,8,24,8C22.89543,8,22,8.89543,22,10C22,10,26,10,26,10C26,10,26,10,26,10ZM22,38C22,39.104600000000005,22.89543,40,24,40C25.10457,40,26,39.104600000000005,26,38C26,38,22,38,22,38C22,38,22,38,22,38ZM22,10C22,10,22,38,22,38C22,38,26,38,26,38C26,38,26,10,26,10C26,10,22,10,22,10C22,10,22,10,22,10Z" fill="#FF8700" fill-opacity="1"/></g><g><path d="M39.4142,25.41421C40.1952,24.63316,40.1952,23.36683,39.4142,22.585785C38.6332,21.804738,37.3668,21.804738,36.5858,22.585785C36.5858,22.585785,39.4142,25.41421,39.4142,25.41421C39.4142,25.41421,39.4142,25.41421,39.4142,25.41421ZM24,38C24,38,22.5858,39.4142,22.5858,39.4142C23.366799999999998,40.1953,24.6332,40.1953,25.4142,39.4142C25.4142,39.4142,24,38,24,38C24,38,24,38,24,38ZM11.41421,22.585785C10.63316,21.804738,9.36683,21.804738,8.585785,22.585785C7.804738,23.36683,7.804738,24.63316,8.585785,25.41421C8.585785,25.41421,11.41421,22.585785,11.41421,22.585785C11.41421,22.585785,11.41421,22.585785,11.41421,22.585785ZM36.5858,22.585785C36.5858,22.585785,22.5858,36.5858,22.5858,36.5858C22.5858,36.5858,25.4142,39.4142,25.4142,39.4142C25.4142,39.4142,39.4142,25.41421,39.4142,25.41421C39.4142,25.41421,36.5858,22.585785,36.5858,22.585785C36.5858,22.585785,36.5858,22.585785,36.5858,22.585785ZM25.4142,36.5858C25.4142,36.5858,11.41421,22.585785,11.41421,22.585785C11.41421,22.585785,8.585785,25.41421,8.585785,25.41421C8.585785,25.41421,22.5858,39.4142,22.5858,39.4142C22.5858,39.4142,25.4142,36.5858,25.4142,36.5858C25.4142,36.5858,25.4142,36.5858,25.4142,36.5858Z" fill="#FF8700" fill-opacity="1"/></g></g></svg>