<svg xmlns="http://www.w3.org/2000/svg" xmlns:xlink="http://www.w3.org/1999/xlink" fill="none" version="1.1" width="48.000002503013775" height="48.000002503013775" viewBox="0 0 48.000002503013775 48.000002503013775"><defs><clipPath id="master_svg0_832_00242"><rect x="48" y="48.000002503013775" width="48" height="48" rx="0"/></clipPath></defs><g transform="matrix(-1,-5.2146120310681e-8,5.2146120310681e-8,-1,95.9999974969861,96.00000750904132)" clip-path="url(#master_svg0_832_00242)"><g><path d="M74,58.000002503013775C74,56.89543250301377,73.10457,56.000002503013775,72,56.000002503013775C70.89543,56.000002503013775,70,56.89543250301377,70,58.000002503013775C70,58.000002503013775,74,58.000002503013775,74,58.000002503013775C74,58.000002503013775,74,58.000002503013775,74,58.000002503013775ZM70,86.00000250301377C70,87.10460250301378,70.89543,88.00000250301377,72,88.00000250301377C73.10457,88.00000250301377,74,87.10460250301378,74,86.00000250301377C74,86.00000250301377,70,86.00000250301377,70,86.00000250301377C70,86.00000250301377,70,86.00000250301377,70,86.00000250301377ZM70,58.000002503013775C70,58.000002503013775,70,86.00000250301377,70,86.00000250301377C70,86.00000250301377,74,86.00000250301377,74,86.00000250301377C74,86.00000250301377,74,58.000002503013775,74,58.000002503013775C74,58.000002503013775,70,58.000002503013775,70,58.000002503013775C70,58.000002503013775,70,58.000002503013775,70,58.000002503013775Z" fill="#3BB64F" fill-opacity="1"/></g><g><path d="M87.4142,73.41421250301377C88.1952,72.63316250301378,88.1952,71.36683250301377,87.4142,70.58578750301378C86.6332,69.80474050301378,85.3668,69.80474050301378,84.5858,70.58578750301378C84.5858,70.58578750301378,87.4142,73.41421250301377,87.4142,73.41421250301377C87.4142,73.41421250301377,87.4142,73.41421250301377,87.4142,73.41421250301377ZM72,86.00000250301377C72,86.00000250301377,70.5858,87.41420250301377,70.5858,87.41420250301377C71.3668,88.19530250301378,72.6332,88.19530250301378,73.4142,87.41420250301377C73.4142,87.41420250301377,72,86.00000250301377,72,86.00000250301377C72,86.00000250301377,72,86.00000250301377,72,86.00000250301377ZM59.41421,70.58578750301378C58.633160000000004,69.80474050301378,57.36683,69.80474050301378,56.585785,70.58578750301378C55.804738,71.36683250301377,55.804738,72.63316250301378,56.585785,73.41421250301377C56.585785,73.41421250301377,59.41421,70.58578750301378,59.41421,70.58578750301378C59.41421,70.58578750301378,59.41421,70.58578750301378,59.41421,70.58578750301378ZM84.5858,70.58578750301378C84.5858,70.58578750301378,70.5858,84.58580250301378,70.5858,84.58580250301378C70.5858,84.58580250301378,73.4142,87.41420250301377,73.4142,87.41420250301377C73.4142,87.41420250301377,87.4142,73.41421250301377,87.4142,73.41421250301377C87.4142,73.41421250301377,84.5858,70.58578750301378,84.5858,70.58578750301378C84.5858,70.58578750301378,84.5858,70.58578750301378,84.5858,70.58578750301378ZM73.4142,84.58580250301378C73.4142,84.58580250301378,59.41421,70.58578750301378,59.41421,70.58578750301378C59.41421,70.58578750301378,56.585785,73.41421250301377,56.585785,73.41421250301377C56.585785,73.41421250301377,70.5858,87.41420250301377,70.5858,87.41420250301377C70.5858,87.41420250301377,73.4142,84.58580250301378,73.4142,84.58580250301378C73.4142,84.58580250301378,73.4142,84.58580250301378,73.4142,84.58580250301378Z" fill="#3BB64F" fill-opacity="1"/></g></g></svg>