<?xml version="1.0" standalone="no"?><!DOCTYPE svg PUBLIC "-//W3C//DTD SVG 1.1//EN" "http://www.w3.org/Graphics/SVG/1.1/DTD/svg11.dtd"><svg t="1715866342326" class="icon" viewBox="0 0 1024 1024" version="1.1" xmlns="http://www.w3.org/2000/svg" p-id="29588" xmlns:xlink="http://www.w3.org/1999/xlink" width="200" height="200"><path d="M512 0c282.7776 0 512 229.2224 512 512s-229.2224 512-512 512S0 794.7776 0 512 229.2224 0 512 0z m167.5776 239.5648a51.2 51.2 0 0 0-51.2 51.2c0 27.9552 17.2032 38.3488 46.6944 55.0912a232.704 232.704 0 1 1-325.9904 0v-0.4608l5.9904-4.864c24.2176-18.688 42.3424-22.7328 44.4416-49.7664 2.3552-29.5424-22.8864-51.2-51.2-51.2a51.0464 51.0464 0 0 0-36.6592 15.4624 325.8368 325.8368 0 1 0 414.6688 11.52v0.512a52.5824 52.5824 0 0 0-46.7456-27.4944zM512 139.6224a46.592 46.592 0 0 0-46.592 46.592v186.1632a46.592 46.592 0 0 0 93.184 0V186.1632a46.592 46.592 0 0 0-46.592-46.5408z" fill="#FF6464" p-id="29589"></path></svg>