<svg xmlns="http://www.w3.org/2000/svg" xmlns:xlink="http://www.w3.org/1999/xlink" fill="none" version="1.1" width="72" height="72" viewBox="0 0 72 72"><g><g><g><rect x="0" y="0" width="72" height="72" rx="24" fill="#FF8700" fill-opacity="1"/></g></g><g><path d="M24.5318,17L47.4818,17C48.2891,17,49.0559,17.3618,49.5689,17.985500000000002L58.7975,29.171599999999998C59.621,30.1679,59.6237,31.6097,58.8056,32.6087L38.0372,57.9887C36.962599999999995,59.3009,34.9619,59.3144,33.8711,58.0157L12.635601,32.7707C11.777001,31.7501,11.790501,30.259700000000002,12.662602,29.2526L22.4879,17.928802C23.0009,17.340202,23.7461,17.00000205994,24.5318,17Z" fill="#FFFFFF" fill-opacity="1"/></g><g><path d="M58.8002,29.1689L58.7435,29.101399999999998L46.8608,29.1284L37.562,17L33.8144,17L25.1582,29.177L12.705804,29.204L12.662604,29.2553C11.789464,30.261699999999998,11.778014,31.753700000000002,12.635603,32.7734L13.2674,33.524L24.7046,33.499700000000004L32.753299999999996,56.6873L33.8711,58.0184C34.9619,59.3171,36.9653,59.3009,38.0372,57.9914L39.2225,56.5442L47.2955,33.4511L58.1387,33.4268L58.8056,32.6114C59.6264,31.604300000000002,59.6237,30.1652,58.8002,29.1689ZM35.750299999999996,21.7304L41.428399999999996,29.136499999999998L30.4664,29.1635L35.750299999999996,21.7304ZM35.966300000000004,52.7669L29.273,33.4862L42.716300000000004,33.4565L35.966300000000004,52.7669Z" fill="#FF8700" fill-opacity="1"/></g></g></svg>