<svg xmlns="http://www.w3.org/2000/svg" xmlns:xlink="http://www.w3.org/1999/xlink" fill="none" version="1.1" width="72" height="72" viewBox="0 0 72 72"><defs><clipPath id="master_svg0_492_6176"><rect x="15" y="12" width="44" height="44" rx="0"/></clipPath></defs><g><g><g><g><rect x="0" y="0" width="72" height="72" rx="24" fill="#FF8700" fill-opacity="1"/></g></g></g><g clip-path="url(#master_svg0_492_6176)"><g><path d="M36.956021875,17.5791015625L28.732421875,28.5395015625L36.934021875,51.2633015625L45.650421875,28.5395015625L37.853621875,17.5791015625L36.956021875,17.5791015625Z" fill="#FF8700" fill-opacity="1"/></g><g><path d="M56.8000248046875,26.05792109375L49.8700248046875,17.16334109375C49.1011248046875,16.17281509375,47.9163248046875,15.59501094375,46.662424804687504,15.59914291385L27.6038248046875,15.59914291385C26.3863248046875,15.59606460375,25.2319848046875,16.14052009375,24.4599948046875,17.08194109375L17.1735948046875,25.94132109375C15.9294908046875,27.45452109375,15.9405868046875,29.639521093749998,17.1999948046875,31.13992109375L33.9200248046875,51.13572109375C34.6409248046875,51.99702109375,35.687024804687496,52.52052109375,36.8086248046875,52.58112109375L37.0396248046875,52.58112109375C38.247224804687505,52.58092109375,39.3917248046875,52.04212109375,40.1614248046875,51.11152109375L56.7252248046875,31.15092109375C57.9324248046875,29.67762109375,57.9635248046875,27.56612109375,56.8000248046875,26.05792109375ZM47.7800248046875,18.79794109375L54.3558248046875,27.23052109375L46.330224804687504,27.23052109375L39.9502248046875,18.25014109375L46.6712248046875,18.25014109375C47.1033248046875,18.25062109375,47.5116248046875,18.44828109375,47.7800248046875,18.78694109375L47.7800248046875,18.79794109375ZM35.5000248046875,47.37602109375L30.6200248046875,29.85952109375L29.5000248046875,29.85942109375L35.5000248046875,47.37602109375ZM44.0000248046875,26.05812109375L37.3894248046875,19.20274109375L43.091824804687505,27.21952109375L44.0000248046875,26.05812109375ZM26.501624804687502,18.75834109375C26.7721248046875,18.42943109375,27.175724804687498,18.23894109375,27.6016248046875,18.23914109375L34.8132248046875,18.23914109375L28.074624804687502,27.21952109375L19.5407948046875,27.21952109375L26.501624804687502,18.75834109375ZM19.5693948046875,29.85952109375L27.8062248046875,29.85952109375L34.0586248046875,47.182321093750005L19.5693948046875,29.85952109375ZM39.8402248046875,47.37592109375L46.5568248046875,29.85952109375L54.3800248046875,29.85952109375L39.8402248046875,47.37592109375Z" fill="#FFFFFF" fill-opacity="1"/></g></g></g></svg>