<svg xmlns="http://www.w3.org/2000/svg" xmlns:xlink="http://www.w3.org/1999/xlink" fill="none" version="1.1" width="72" height="72" viewBox="0 0 72 72"><defs><clipPath id="master_svg0_492_6183"><rect x="12" y="12" width="48" height="48" rx="0"/></clipPath></defs><g><g><rect x="0" y="0" width="72" height="72" rx="24" fill="#FF8700" fill-opacity="1"/></g><g clip-path="url(#master_svg0_492_6183)"><g><path d="M47.714001171875,18.107421875L24.285891171875,18.107421875L16.668701171875,29.877721875L35.943701171875,53.887121875L55.331201171875,29.877721875L47.714001171875,18.107421875ZM27.515601171874998,30.890221875L33.046801171875,46.837121875L20.245261171875,30.890221875L27.515601171874998,30.890221875ZM35.901501171875,21.337111875C35.915601171875,21.318361875,35.948401171875,21.262111875,36.032801171875,21.262111875C36.117101171875,21.262111875,36.154601171875,21.318361875,36.164001171875,21.337111875L36.178101171875,21.360551875L41.592101171875,28.734021875L30.421801171875,28.734021875L35.868701171875,21.383981875L35.901501171875,21.337111875ZM42.196801171874995,30.890221875L35.948401171875,48.618321875L29.793701171875,30.890221875L42.196801171874995,30.890221875ZM44.479601171875004,30.890221875L51.745301171875,30.890221875L38.854601171875004,46.851221875L44.479601171875004,30.890221875ZM52.021801171875,28.734021875L44.264001171875,28.734021875L38.053101171875,20.263671875L46.537501171875,20.263671875L52.021801171875,28.734021875ZM25.457761171875,20.263671875L34.012501171875,20.263671875L27.735901171875,28.734021875L19.978081171875,28.734021875L25.457761171875,20.263671875Z" fill="#FFFFFF" fill-opacity="1"/></g></g></g></svg>