<svg xmlns="http://www.w3.org/2000/svg" xmlns:xlink="http://www.w3.org/1999/xlink" fill="none" version="1.1" width="44" height="44" viewBox="0 0 44 44"><defs><clipPath id="master_svg0_42_4027"><rect x="0" y="0" width="44" height="44" rx="0"/></clipPath></defs><g clip-path="url(#master_svg0_42_4027)"><g><g><path d="M4,22C4,12.05887,12.05887,4,22,4C31.9411,4,40,12.05887,40,22C40,31.9411,31.9411,40,22,40C12.05887,40,4,31.9411,4,22ZM6,22Q6,25.0519,7.1233900000000006,27.8895Q8.34314,30.9706,10.68629,33.3137Q13.02943,35.656800000000004,16.110500000000002,36.8766Q18.9481,38,22,38Q25.0519,38,27.8895,36.8766Q30.9706,35.656800000000004,33.3137,33.3137Q35.6569,30.9706,36.8766,27.8895Q38,25.0519,38,22Q38,18.9481,36.8766,16.110500000000002Q35.656800000000004,13.02943,33.3137,10.68629Q30.9706,8.34314,27.8895,7.1233900000000006Q25.0519,6,22,6Q18.9481,6,16.110500000000002,7.1233900000000006Q13.02944,8.34315,10.68629,10.68629Q8.34315,13.02944,7.1233900000000006,16.110500000000002Q6,18.9481,6,22Z" fill-rule="evenodd" fill="#FAE473" fill-opacity="1"/></g><g><path d="M14,22C14,21.447715,14.447715,21,15,21L29,21C29.552300000000002,21,30,21.447715,30,22C30,22.55228,29.552300000000002,23,29,23L15,23C14.447715,23,14,22.55228,14,22Z" fill="#EFA23E" fill-opacity="1"/></g><g transform="matrix(0,1,-1,0,37,-9)"><path d="M23,15C23,14.447715,23.447715,14,24,14L38,14C38.5523,14,39,14.447715,39,15C39,15.55228,38.5523,16,38,16L24,16C23.447715,16,23,15.55228,23,15Z" fill="#EFA23E" fill-opacity="1"/></g></g></g></svg>