<svg xmlns="http://www.w3.org/2000/svg" xmlns:xlink="http://www.w3.org/1999/xlink" fill="none" version="1.1" width="48" height="48" viewBox="0 0 48 48"><defs><clipPath id="master_svg0_832_7966"><rect x="6" y="54" width="36" height="36" rx="0"/></clipPath></defs><g transform="matrix(1,0,0,-1,0,96)"><rect x="0" y="48" width="48" height="48" rx="24" fill="#FFFFFF" fill-opacity="0.15000000596046448"/><g clip-path="url(#master_svg0_832_7966)"><g><path d="M16.453556875,75.70349583984375C16.558060875,75.59872983984376,16.682204875,75.51560783984375,16.818880875,75.45889383984375C16.955558875,75.40217923984375,17.102080875,75.37298583984375,17.250056875,75.37298583984375C17.398036875,75.37298583984375,17.544556875,75.40217923984375,17.681236875,75.45889383984375C17.817906875,75.51560783984375,17.942056875,75.59872983984376,18.046556875,75.70349583984375C18.046556875,75.70349583984375,24.000046875,81.65924583984375,24.000046875,81.65924583984375C24.000046875,81.65924583984375,29.953546875,75.70349583984375,29.953546875,75.70349583984375C30.164846875000002,75.49225083984375,30.451346875,75.37357592584375,30.750046875000002,75.37357592584375C31.048846875000002,75.37357592584375,31.335346875,75.49225083984375,31.546546875,75.70349583984375C31.757846875,75.91474183984376,31.876446875,76.20125183984375,31.876446875,76.49999583984375C31.876446875,76.79874583984375,31.757846875,77.08525583984375,31.546546875,77.29649583984374C31.546546875,77.29649583984374,24.796546875,84.04650583984375,24.796546875,84.04650583984375C24.692046875000003,84.15126583984375,24.567906875,84.23438583984375,24.431226875,84.29110583984375C24.294546875,84.34780583984374,24.148026875,84.37700583984375,24.000046875,84.37700583984375C23.852086875,84.37700583984375,23.705566875,84.34780583984374,23.568886875,84.29110583984375C23.432206875,84.23438583984375,23.308066875,84.15126583984375,23.203546875,84.04650583984375C23.203546875,84.04650583984375,16.453556875,77.29649583984374,16.453556875,77.29649583984374C16.348790875,77.19199583984376,16.265667875,77.06784583984376,16.208953675,76.93117583984375C16.152239275,76.79449583984375,16.123046875,76.64797583984375,16.123046875,76.49999583984375C16.123046875,76.35201983984375,16.152239275,76.20549783984374,16.208953675,76.06882183984375C16.265667875,75.93214583984376,16.348790875,75.80799983984375,16.453556875,75.70349583984375C16.453556875,75.70349583984375,16.453556875,75.70349583984375,16.453556875,75.70349583984375C16.453556875,75.70349583984375,16.453556875,75.70349583984375,16.453556875,75.70349583984375Z" fill-rule="evenodd" fill="#FFFFFF" fill-opacity="1"/></g><g><path d="M24,59.625C24.29837,59.625,24.58452,59.743527,24.7955,59.954506C25.00648,60.165484,25.125,60.451632000000004,25.125,60.75C25.125,60.75,25.125,81,25.125,81C25.125,81.2984,25.00648,81.5846,24.7955,81.7954C24.58452,82.0064,24.29837,82.125,24,82.125C23.701632,82.125,23.415484,82.0064,23.204506,81.7954C22.993527,81.5846,22.875,81.2984,22.875,81C22.875,81,22.875,60.75,22.875,60.75C22.875,60.451632000000004,22.993527,60.165484,23.204506,59.954506C23.415484,59.743527,23.701632,59.625,24,59.625C24,59.625,24,59.625,24,59.625C24,59.625,24,59.625,24,59.625Z" fill-rule="evenodd" fill="#FFFFFF" fill-opacity="1"/></g></g></g></svg>