<svg xmlns="http://www.w3.org/2000/svg" xmlns:xlink="http://www.w3.org/1999/xlink" fill="none" version="1.1" width="48" height="48" viewBox="0 0 48 48"><defs><clipPath id="master_svg0_832_7977"><rect x="6" y="6" width="36" height="36" rx="0"/></clipPath></defs><g><rect x="0" y="0" width="48" height="48" rx="24" fill="#FFFFFF" fill-opacity="0.15000000596046448"/><g clip-path="url(#master_svg0_832_7977)"><g><path d="M16.453556875,27.70349583984375C16.558060875,27.59872983984375,16.682204875,27.51560783984375,16.818880875,27.45889383984375C16.955558875,27.40217923984375,17.102080875,27.37298583984375,17.250056875,27.37298583984375C17.398036875,27.37298583984375,17.544556875,27.40217923984375,17.681236875,27.45889383984375C17.817906875,27.51560783984375,17.942056875,27.59872983984375,18.046556875,27.70349583984375C18.046556875,27.70349583984375,24.000046875,33.65924583984375,24.000046875,33.65924583984375C24.000046875,33.65924583984375,29.953546875,27.70349583984375,29.953546875,27.70349583984375C30.164846875000002,27.49225083984375,30.451346875,27.37357592584375,30.750046875000002,27.37357592584375C31.048846875000002,27.37357592584375,31.335346875,27.49225083984375,31.546546875,27.70349583984375C31.757846875,27.91474183984375,31.876446875,28.20125183984375,31.876446875,28.49999583984375C31.876446875,28.79874583984375,31.757846875,29.08525583984375,31.546546875,29.29649583984375C31.546546875,29.29649583984375,24.796546875,36.046505839843746,24.796546875,36.046505839843746C24.692046875000003,36.15126583984375,24.567906875,36.23438583984375,24.431226875,36.29110583984375C24.294546875,36.34780583984375,24.148026875,36.37700583984375,24.000046875,36.37700583984375C23.852086875,36.37700583984375,23.705566875,36.34780583984375,23.568886875,36.29110583984375C23.432206875,36.23438583984375,23.308066875,36.15126583984375,23.203546875,36.046505839843746C23.203546875,36.046505839843746,16.453556875,29.29649583984375,16.453556875,29.29649583984375C16.348790875,29.19199583984375,16.265667875,29.06784583984375,16.208953675,28.93117583984375C16.152239275,28.79449583984375,16.123046875,28.64797583984375,16.123046875,28.49999583984375C16.123046875,28.35201983984375,16.152239275,28.20549783984375,16.208953675,28.06882183984375C16.265667875,27.93214583984375,16.348790875,27.80799983984375,16.453556875,27.70349583984375C16.453556875,27.70349583984375,16.453556875,27.70349583984375,16.453556875,27.70349583984375C16.453556875,27.70349583984375,16.453556875,27.70349583984375,16.453556875,27.70349583984375Z" fill-rule="evenodd" fill="#FFFFFF" fill-opacity="1"/></g><g><path d="M24,11.625C24.29837,11.625,24.58452,11.743527,24.7955,11.954506C25.00648,12.165484,25.125,12.451632,25.125,12.75C25.125,12.75,25.125,33,25.125,33C25.125,33.2984,25.00648,33.584599999999995,24.7955,33.7954C24.58452,34.0064,24.29837,34.125,24,34.125C23.701632,34.125,23.415484,34.0064,23.204506,33.7954C22.993527,33.584599999999995,22.875,33.2984,22.875,33C22.875,33,22.875,12.75,22.875,12.75C22.875,12.451632,22.993527,12.165484,23.204506,11.954506C23.415484,11.743527,23.701632,11.624999999999998,24,11.625C24,11.625,24,11.625,24,11.625C24,11.625,24,11.625,24,11.625Z" fill-rule="evenodd" fill="#FFFFFF" fill-opacity="1"/></g></g></g></svg>