<svg xmlns="http://www.w3.org/2000/svg" xmlns:xlink="http://www.w3.org/1999/xlink" fill="none" version="1.1" width="200" height="199.8000030517578" viewBox="0 0 200 199.8000030517578"><defs><clipPath id="master_svg0_10_266"><rect x="0" y="0" width="200" height="199.8000030517578" rx="0"/></clipPath></defs><g clip-path="url(#master_svg0_10_266)"><g><rect x="49.77978515625" y="72.24128723144531" width="98.96182250976562" height="52.47975540161133" rx="0" fill="#FFFFFF" fill-opacity="1"/></g><g><path d="M99.966015625,25.009656017585936C68.45511562499999,24.998536425585936,40.307615625,44.71220622558594,29.547015625,74.32880622558594C18.786465624999998,103.94550622558594,27.714735625,137.12950622558594,51.883615625000004,157.34850622558594L47.539715625,174.79950622558593L75.849915625,170.75450622558594C119.659815625,185.76650622558594,166.458015625,157.81950622558594,174.018015625,112.13060622558594C181.578015625,66.44130622558595,146.276015625,24.90963202558594,99.966015625,25.009656017585936ZM66.263415625,84.92540622558593L81.242315625,84.92540622558593L73.752815625,114.88330622558594L58.773915625,114.88330622558594L66.263415625,84.92540622558593ZM103.710715625,114.88330622558594L88.731815625,114.88330622558594L96.221315625,84.92540622558593L111.200215625,84.92540622558593L103.710715625,114.88330622558594ZM133.669015625,114.88330622558594L118.689715625,114.88330622558594L126.179015625,84.92540622558593L141.15801562500002,84.92540622558593L133.669015625,114.88330622558594Z" fill="#FFAA44" fill-opacity="1"/></g></g></svg>