<svg xmlns="http://www.w3.org/2000/svg" xmlns:xlink="http://www.w3.org/1999/xlink" fill="none" version="1.1" width="96" height="96" viewBox="0 0 96 96"><g><g><rect x="0" y="0" width="96" height="96" rx="40" fill="#C67848" fill-opacity="1"/></g><g><g><g><path d="M46.45766561050415,38.581047152557375C46.45766561050415,38.581047152557375,46.45766561050415,30.56301715255737,46.45766561050415,30.56301715255737C46.45766561050415,29.710465152557372,47.13766561050415,29.000007152557373,47.99766561050415,29.000007152557373C48.76766561050415,29.000007152557373,49.42006561050415,29.596989152557374,49.52346561050415,30.353167152557372C49.52346561050415,30.353167152557372,49.53766561050415,30.56301715255737,49.53766561050415,30.56301715255737C49.53766561050415,30.56301715255737,49.53766561050415,38.581047152557375,49.53766561050415,38.581047152557375C49.53766561050415,38.581047152557375,59.09746561050415,38.58166715255737,59.09746561050415,38.58166715255737C63.85746561050415,38.58166715255737,67.76806561050415,42.47960715255737,67.98766561050415,47.340807152557375C67.98766561050415,47.340807152557375,67.99746561050415,47.77220715255737,67.99746561050415,47.77220715255737C67.99746561050415,47.77220715255737,67.99746561050415,57.85080715255737,67.99746561050415,57.85080715255737C67.99746561050415,62.746007152557375,64.22286561050416,66.76440715255737,59.53346561050415,66.99000715255738C59.53346561050415,66.99000715255738,59.117465610504155,67.00000715255737,59.117465610504155,67.00000715255737C59.117465610504155,67.00000715255737,36.87746561050415,67.00000715255737,36.87746561050415,67.00000715255737C32.11746561050415,67.00000715255737,28.22564561050415,63.121607152557374,28.007141170504152,58.24260715255737C28.007141170504152,58.24260715255737,27.99746561050415,57.80940715255737,27.99746561050415,57.80940715255737C27.99746561050415,57.80940715255737,27.997465610504157,47.75150715255737,27.997465610504157,47.75150715255737C27.997465610504157,42.856207152557374,31.75328561050415,38.818427152557376,36.44144561050415,38.591707152557376C36.44144561050415,38.591707152557376,36.85746561050415,38.58166715255737,36.85746561050415,38.58166715255737C36.85746561050415,38.58166715255737,46.45746561050415,38.58166715255737,46.45746561050415,38.58166715255737C46.45746561050415,38.58166715255737,46.45746561050415,51.38640715255737,46.45746561050415,51.38640715255737C46.45746561050415,51.38640715255737,43.25746561050415,48.082007152557374,43.25746561050415,48.082007152557374C42.65746561050415,47.462407152557375,41.67746561050415,47.462407152557375,41.07746561050415,48.082007152557374C40.77746561050415,48.39180715255738,40.63746561050415,48.80480715255737,40.63746561050415,49.21780715255737C40.63746561050415,49.53180715255738,40.72706561050415,49.859007152557375,40.91646561050415,50.135807152557376C40.91646561050415,50.135807152557376,41.07746561050415,50.33320715255738,41.07746561050415,50.33320715255738C41.07746561050415,50.33320715255738,46.89746561050415,56.36380715255737,46.89746561050415,56.36380715255737C47.17746561050415,56.67360715255737,47.57746561050415,56.83880715255737,47.99746561050415,56.83880715255737C48.33086561050415,56.83880715255737,48.66406561050415,56.72400715255738,48.92806561050415,56.50660715255737C48.92806561050415,56.50660715255737,49.07746561050415,56.36380715255737,49.07746561050415,56.36380715255737C49.07746561050415,56.36380715255737,54.89746561050415,50.33320715255738,54.89746561050415,50.33320715255738C55.49746561050415,49.71360715255737,55.49746561050415,48.70160715255737,54.89746561050415,48.082007152557374C54.352065610504155,47.51870715255737,53.492465610504155,47.467507152557374,52.889865610504145,47.92840715255737C52.889865610504145,47.92840715255737,52.71746561050415,48.082007152557374,52.71746561050415,48.082007152557374C52.71746561050415,48.082007152557374,49.53746561050415,51.38640715255737,49.53746561050415,51.38640715255737C49.53746561050415,51.38640715255737,49.53746561050415,38.58166715255737,49.53746561050415,38.58166715255737C49.53746561050415,38.58166715255737,46.45766561050415,38.581047152557375,46.45766561050415,38.581047152557375C46.45766561050415,38.581047152557375,46.45766561050415,38.581047152557375,46.45766561050415,38.581047152557375Z" fill="#FFFFFF" fill-opacity="1"/></g></g></g></g></svg>