<svg xmlns="http://www.w3.org/2000/svg" width="102" height="103" viewBox="0 0 102 103">
  <rect x="3" y="0" width="96" height="96" rx="40" fill="#0FA78E" />
  <path
    d="M42.846,28C42.846,28,36.086,28,36.086,28C33.286,28,31.006,30.3,31.006,33.122C31.006,33.122,31.006,39.94,31.006,39.94C31.006,42.78,33.286,45.06,36.086,45.06C36.086,45.06,42.846,45.06,42.846,45.06C45.666,45.06,47.926,42.78,47.926,39.94C47.926,39.94,47.926,33.122,47.926,33.122C47.926,30.3,45.666,28,42.846,28ZM42.843,50.939C42.843,50.939,36.083,50.939,36.083,50.939C33.283,50.939,31.003,53.221,31.003,56.061C31.003,56.061,31.003,62.879,31.003,62.879C31.003,65.699,33.283,68,36.083,68C36.083,68,42.843,68,42.843,68C45.663,68,47.923,65.699,47.923,62.879C47.923,62.879,47.923,56.061,47.923,56.061C47.923,53.221,45.663,50.939,42.843,50.939ZM65.923,28C65.923,28,59.163,28,59.163,28C56.343,28,54.083,30.3,54.083,33.122C54.083,33.122,54.083,39.94,54.083,39.94C54.083,42.78,56.343,45.06,59.163,45.06C59.163,45.06,65.923,45.06,65.923,45.06C68.723,45.06,71.003,42.78,71.003,39.94C71.003,39.94,71.003,33.122,71.003,33.122C71.003,30.3,68.723,28,65.923,28ZM65.923,50.939C65.923,50.939,59.163,50.939,59.163,50.939C56.343,50.939,54.083,53.221,54.083,56.061C54.083,56.061,54.083,62.879,54.083,62.879C54.083,65.699,56.343,68,59.163,68C59.163,68,65.923,68,65.923,68C68.723,68,71.003,65.699,71.003,62.879C71.003,62.879,71.003,56.061,71.003,56.061C71.003,53.221,68.723,50.939,65.923,50.939Z"
    fill="#FFFFFF" />
</svg>