<svg xmlns="http://www.w3.org/2000/svg" xmlns:xlink="http://www.w3.org/1999/xlink" fill="none"
  version="1.1" width="96" height="96" viewBox="0 0 96 96">
  <g>
    <g>
      <rect x="0" y="0" width="96" height="96" rx="40" fill="#FF8700" fill-opacity="1" />
    </g>
    <g>
      <g>
        <g>
          <path
            d="M59.539256499099736,40.763619073486325C59.539256499099736,40.763619073486325,68.00145649909973,40.763619073486325,68.00145649909973,40.763619073486325C68.00145649909973,33.96919907348633,63.930256499099734,30.000019073486328,57.03265649909973,30.000019073486328C57.03265649909973,30.000019073486328,38.97035649909973,30.000019073486328,38.97035649909973,30.000019073486328C32.07257649909973,30.000019073486328,28.00145649909973,33.96919907348633,28.00145649909973,40.67691907348633C28.00145649909973,40.67691907348633,28.00145649909973,55.32301907348633,28.00145649909973,55.32301907348633C28.00145649909973,62.03081907348633,32.07257649909973,66.00001907348633,38.97035649909973,66.00001907348633C38.97035649909973,66.00001907348633,57.03265649909973,66.00001907348633,57.03265649909973,66.00001907348633C63.930256499099734,66.00001907348633,68.00145649909973,62.03081907348633,68.00145649909973,55.32301907348633C68.00145649909973,55.32301907348633,68.00145649909973,54.699019073486326,68.00145649909973,54.699019073486326C68.00145649909973,54.699019073486326,59.539256499099736,54.699019073486326,59.539256499099736,54.699019073486326C55.61185649909973,54.699019073486326,52.42805649909973,51.59501907348633,52.42805649909973,47.766019073486326C52.42805649909973,43.937019073486326,55.61185649909973,40.83291907348633,59.539256499099736,40.83291907348633C59.539256499099736,40.83291907348633,59.539256499099736,40.763619073486325,59.539256499099736,40.763619073486325C59.539256499099736,40.763619073486325,59.539256499099736,40.763619073486325,59.539256499099736,40.763619073486325ZM59.53865649909973,43.744819073486326C59.53865649909973,43.744819073486326,66.50745649909973,43.744819073486326,66.50745649909973,43.744819073486326C67.33225649909974,43.744819073486326,68.00085649909974,44.396719073486324,68.00085649909974,45.20081907348633C68.00085649909974,45.20081907348633,68.00085649909974,50.26201907348633,68.00085649909974,50.26201907348633C67.99125649909973,51.06221907348633,67.32825649909972,51.708419073486326,66.50745649909973,51.717819073486325C66.50745649909973,51.717819073486325,59.69865649909973,51.717819073486325,59.69865649909973,51.717819073486325C57.710456499099735,51.74401907348633,55.97185649909973,50.41681907348632,55.520856499099736,48.528619073486325C55.29505649909973,47.35661907348633,55.61205649909974,46.14711907348632,56.386856499099736,45.22441907348633C57.16185649909973,44.301719073486325,58.31545649909973,43.76011907348633,59.53865649909973,43.744819073486326C59.53865649909973,43.744819073486326,59.53865649909973,43.744819073486326,59.53865649909973,43.744819073486326ZM59.84325649909973,49.06601907348633C59.84325649909973,49.06601907348633,60.50105649909973,49.06601907348633,60.50105649909973,49.06601907348633C61.34545649909973,49.06601907348633,62.02985649909973,48.39861907348633,62.02985649909973,47.57541907348633C62.02985649909973,46.75211907348633,61.34545649909973,46.08481907348633,60.50105649909973,46.08481907348633C60.50105649909973,46.08481907348633,59.84325649909973,46.08481907348633,59.84325649909973,46.08481907348633C59.439456499099734,46.08011907348633,59.05045649909973,46.23331907348633,58.76325649909973,46.51011907348633C58.47605649909973,46.78691907348633,58.314456499099734,47.164319073486325,58.314456499099734,47.558119073486324C58.31425649909973,48.38411907348633,58.99605649909973,49.05651907348633,59.84325649909973,49.06601907348633C59.84325649909973,49.06601907348633,59.84325649909973,49.06601907348633,59.84325649909973,49.06601907348633ZM37.47841649909973,40.763619073486325C37.47841649909973,40.763619073486325,48.76725649909973,40.763619073486325,48.76725649909973,40.763619073486325C49.61165649909973,40.763619073486325,50.29625649909973,40.096219073486324,50.29625649909973,39.273019073486324C50.29625649909973,38.449779073486326,49.61165649909973,37.78241907348633,48.76725649909973,37.78241907348633C48.76725649909973,37.78241907348633,37.47841649909973,37.78241907348633,37.47841649909973,37.78241907348633C36.64091649909973,37.782359073486326,35.95925649909973,38.43921907348633,35.94951649909973,39.255699073486326C35.94945649909973,40.08181907348633,36.63115649909973,40.75411907348633,37.47841649909973,40.763619073486325C37.47841649909973,40.763619073486325,37.47841649909973,40.763619073486325,37.47841649909973,40.763619073486325Z"
            fill-rule="evenodd" fill="#FFFFFF" fill-opacity="1" />
        </g>
      </g>
    </g>
  </g>
</svg>