<svg xmlns="http://www.w3.org/2000/svg" xmlns:xlink="http://www.w3.org/1999/xlink" fill="none" version="1.1" width="96" height="96" viewBox="0 0 96 96"><g><g><rect x="0" y="0" width="96" height="96" rx="40" fill="#32A7E2" fill-opacity="1"/></g><g><g><g><g><path d="M45.66827112426758,48.01320190734863L45.67137112426758,48.721401907348636C45.69567112426758,51.53040190734863,45.864971124267576,54.03650190734864,46.15697112426758,55.62470190734864C46.15697112426758,55.65340190734864,46.475571124267574,57.22860190734863,46.678471124267574,57.75280190734863C46.996971124267574,58.510801907348636,47.57297112426758,59.15400190734863,48.29517112426758,59.56160190734863C48.87337112426758,59.852401907348636,49.479871124267575,60.00000190734863,50.11477112426758,60.00000190734863C50.613871124267575,59.97680190734863,51.43697112426758,59.72580190734863,52.024371124267574,59.51520190734863L52.51257112426758,59.328001907348636C55.74597112426758,58.04360190734863,61.92697112426758,53.84690190734864,64.29427112426758,51.28030190734863L64.46877112426758,51.10090190734863L65.24767112426758,50.260301907348634C65.73867112426757,49.61700190734864,65.99827112426757,48.83050190734863,65.99827112426757,47.98460190734863C65.99827112426757,47.226701907348634,65.76687112426758,46.46890190734863,65.30437112426758,45.85644190734863C65.16597112426757,45.65802190734863,64.94287112426758,45.403461907348635,64.74437112426759,45.188381907348635L63.98627112426758,44.39478190734863C61.37727112426758,41.751441907348635,55.728571124267575,38.043661907348636,52.80057112426758,36.815129907348634C52.80057112426758,36.78869390734863,50.98097112426758,36.02864150734863,50.11477112426758,36.00000190734863L49.999171124267576,36.00000190734863C48.67047112426758,36.00000190734863,47.428971124267576,36.757849907348636,46.794071124267575,37.98274190734863C46.620671124267574,38.31760190734863,46.45427112426758,38.97356190734863,46.32777112426758,39.549661907348636L46.10027112426758,40.63742190734863C45.84067112426758,42.38664190734863,45.66827112426758,45.069941907348635,45.66827112426758,48.01320190734863ZM33.00487112426758,44.963381907348634C31.34454112426758,44.963381907348634,29.998371124267578,46.32270190734863,29.998371124267578,47.999201907348635C29.998371124267578,49.67570190734863,31.34454112426758,51.03500190734863,33.00487112426758,51.03500190734863L40.40337112426758,50.38070190734863C41.705871124267574,50.38070190734863,42.76187112426758,49.316601907348634,42.76187112426758,47.999201907348635C42.76187112426758,46.68400190734863,41.705871124267574,45.61769190734863,40.40337112426758,45.61769190734863L33.00487112426758,44.963381907348634Z" fill-rule="evenodd" fill="#FFFFFF" fill-opacity="1"/></g></g></g></g></g></svg>