<svg xmlns="http://www.w3.org/2000/svg" xmlns:xlink="http://www.w3.org/1999/xlink" fill="none" version="1.1" width="102" height="103" viewBox="0 0 102 103"><defs><filter id="master_svg0_492_9572" filterUnits="objectBoundingBox" color-interpolation-filters="sRGB" x="-4" y="0" width="104" height="104"><feFlood flood-opacity="0" result="BackgroundImageFix"/><feColorMatrix in="SourceAlpha" type="matrix" values="0 0 0 0 0 0 0 0 0 0 0 0 0 0 0 0 0 0 127 0"/><feOffset dy="4" dx="0"/><feGaussianBlur stdDeviation="1"/><feColorMatrix type="matrix" values="0 0 0 0 0.250980406999588 0 0 0 0 0.2823529541492462 0 0 0 0 0.32156863808631897 0 0 0 0.05000000074505806 0"/><feBlend mode="normal" in2="BackgroundImageFix" result="effect1_dropShadow"/><feBlend mode="normal" in="SourceGraphic" in2="effect1_dropShadow" result="shape"/></filter></defs><g><g filter="url(#master_svg0_492_9572)"><rect x="3" y="0" width="96" height="96" rx="40" fill="#0FA78E" fill-opacity="1"/></g><g><g><g><path d="M42.84570781936645,27.99999237060547C42.84570781936645,27.99999237060547,36.08574781936645,27.99999237060547,36.08574781936645,27.99999237060547C33.285747819366456,27.99999237060547,31.005749229366455,30.29999237060547,31.005749229366455,33.12199237060547C31.005749229366455,33.12199237060547,31.005749229366455,39.93999237060547,31.005749229366455,39.93999237060547C31.005749229366455,42.77999237060547,33.285747819366456,45.05999237060547,36.08574781936645,45.05999237060547C36.08574781936645,45.05999237060547,42.84570781936645,45.05999237060547,42.84570781936645,45.05999237060547C45.66570781936645,45.05999237060547,47.92570781936645,42.77999237060547,47.92570781936645,39.93999237060547C47.92570781936645,39.93999237060547,47.92570781936645,33.12199237060547,47.92570781936645,33.12199237060547C47.92570781936645,30.29999237060547,45.66570781936645,27.99999237060547,42.84570781936645,27.99999237060547ZM42.84330781936646,50.939492370605464C42.84330781936646,50.939492370605464,36.08330781936645,50.939492370605464,36.08330781936645,50.939492370605464C33.283307819366456,50.939492370605464,31.003307819366455,53.22149237060547,31.003307819366455,56.061492370605464C31.003307819366455,56.061492370605464,31.003307819366455,62.87949237060547,31.003307819366455,62.87949237060547C31.003307819366455,65.69949237060547,33.283307819366456,67.99949237060547,36.08330781936645,67.99949237060547C36.08330781936645,67.99949237060547,42.84330781936646,67.99949237060547,42.84330781936646,67.99949237060547C45.66330781936645,67.99949237060547,47.92330781936646,65.69949237060547,47.92330781936646,62.87949237060547C47.92330781936646,62.87949237060547,47.92330781936646,56.061492370605464,47.92330781936646,56.061492370605464C47.92330781936646,53.22149237060547,45.66330781936645,50.939492370605464,42.84330781936646,50.939492370605464C42.84330781936646,50.939492370605464,42.84330781936646,50.939492370605464,42.84330781936646,50.939492370605464ZM65.92340781936645,27.99999237060547C65.92340781936645,27.99999237060547,59.163407819366455,27.99999237060547,59.163407819366455,27.99999237060547C56.343407819366455,27.99999237060547,54.08340781936646,30.29999237060547,54.08340781936646,33.12199237060547C54.08340781936646,33.12199237060547,54.08340781936646,39.93999237060547,54.08340781936646,39.93999237060547C54.08340781936646,42.77999237060547,56.343407819366455,45.05999237060547,59.163407819366455,45.05999237060547C59.163407819366455,45.05999237060547,65.92340781936645,45.05999237060547,65.92340781936645,45.05999237060547C68.72340781936646,45.05999237060547,71.00340781936646,42.77999237060547,71.00340781936646,39.93999237060547C71.00340781936646,39.93999237060547,71.00340781936646,33.12199237060547,71.00340781936646,33.12199237060547C71.00340781936646,30.29999237060547,68.72340781936646,27.99999237060547,65.92340781936645,27.99999237060547C65.92340781936645,27.99999237060547,65.92340781936645,27.99999237060547,65.92340781936645,27.99999237060547ZM65.92340781936645,50.939492370605464C65.92340781936645,50.939492370605464,59.163407819366455,50.939492370605464,59.163407819366455,50.939492370605464C56.343407819366455,50.939492370605464,54.08340781936646,53.22149237060547,54.08340781936646,56.061492370605464C54.08340781936646,56.061492370605464,54.08340781936646,62.87949237060547,54.08340781936646,62.87949237060547C54.08340781936646,65.69949237060547,56.343407819366455,67.99949237060547,59.163407819366455,67.99949237060547C59.163407819366455,67.99949237060547,65.92340781936645,67.99949237060547,65.92340781936645,67.99949237060547C68.72340781936646,67.99949237060547,71.00340781936646,65.69949237060547,71.00340781936646,62.87949237060547C71.00340781936646,62.87949237060547,71.00340781936646,56.061492370605464,71.00340781936646,56.061492370605464C71.00340781936646,53.22149237060547,68.72340781936646,50.939492370605464,65.92340781936645,50.939492370605464C65.92340781936645,50.939492370605464,65.92340781936645,50.939492370605464,65.92340781936645,50.939492370605464Z" fill="#FFFFFF" fill-opacity="1"/></g></g></g></g></svg>