<svg xmlns="http://www.w3.org/2000/svg" xmlns:xlink="http://www.w3.org/1999/xlink" fill="none" version="1.1" width="200" height="200" viewBox="0 0 200 200"><defs><clipPath id="master_svg0_10_234"><rect x="0" y="0" width="200" height="200" rx="0"/></clipPath></defs><g clip-path="url(#master_svg0_10_234)"><g><path d="M175,151.132298828125C175,164.333298828125,164.373,175.036298828125,151.267,175.036298828125L48.733000000000004,175.036298828125C35.6267,175.036298828125,25,164.333298828125,25,151.132298828125L25,47.859498828125C25,34.658598828125,35.6265,23.956298828125,48.733000000000004,23.956298828125L151.267,23.956298828125C164.373,23.956298828125,175,34.658598828125,175,47.859498828125L175,151.132298828125Z" fill="#FFAA44" fill-opacity="1"/></g><g><path d="M100.75732578125,52.891883850097656C73.54142578125,52.891883850097656,51.39893563126,75.03438385009765,51.39893563126,102.24228385009766C51.39893563126,112.62938385009765,54.59997578125,122.57638385009766,60.65764578125,131.01068385009765C61.16255578125,130.64628385009766,58.39361578125,128.45218385009764,58.68635578125,127.90278385009766C60.149385781250004,129.65098385009765,64.28382578125,136.30308385009766,66.00232578125,137.80088385009765C65.47922578125,138.09148385009766,65.67372578125,135.19098385009767,65.32322578125,135.67598385009765C64.00272578125,137.50858385009764,70.14032578125,141.00568385009765,71.98102578125,142.33408385009767C80.40742578125,148.39188385009766,90.35442578125,151.60068385009765,100.75732578125,151.60068385009765C127.97332578125,151.60068385009765,150.11562578125,129.45818385009767,150.11572578125,102.24228385009766C150.11582578125,75.03438385009765,127.97332578125,52.891870716797655,100.75732578125,52.891883850097656ZM125.69862578125,89.85178385009766C125.69862578125,94.27158385009766,122.11712578125,97.85308385009765,117.69722578125,97.85308385009765C113.27842578125001,97.85308385009765,109.69402578124999,94.27158385009766,109.69402578124999,89.85178385009766C109.69402578124999,85.42948385009765,113.27862578125,81.84898385009765,117.69722578125,81.84898385009765C122.11712578125,81.84898385009765,125.69862578125,85.42948385009765,125.69862578125,89.85178385009766ZM92.26802578125,89.85178385009766C92.26802578125,94.27158385009766,88.68492578125,97.85308385009765,84.26612578125,97.85308385009765C79.84632578125,97.85308385009765,76.26522578125,94.27158385009766,76.26522578125,89.85178385009766C76.26522578125,85.42948385009765,79.84632578125,81.84898385009765,84.26612578125,81.84898385009765C88.68492578125,81.84898385009765,92.26802578125,85.42948385009765,92.26802578125,89.85178385009766ZM80.08732578125,101.90278385009765C82.60562578125,101.90278385009765,84.64322578125001,103.94038385009765,84.64322578125001,106.45868385009766C84.64322578125001,115.34768385009767,91.86822578125,122.57288385009765,100.75742578124999,122.57288385009765C109.64662578125001,122.57288385009765,116.87172578125,115.34788385009766,116.87172578125,106.45868385009766C116.87172578125,103.94038385009765,118.90932578125,101.90278385009765,121.42762578125,101.90278385009765C123.94592578125,101.90278385009765,125.98352578125,103.94038385009765,125.98352578125,106.45868385009766C125.98352578125,120.36618385009766,114.66512578125,131.68448385009765,100.75762578125,131.68448385009765C86.85012578125,131.68448385009765,75.53172578125,120.36618385009766,75.53172578125,106.45868385009766C75.53162578125,103.94038385009765,77.56922578125,101.90278385009765,80.08732578125,101.90278385009765Z" fill="#FFFFFF" fill-opacity="1"/></g></g></svg>