<svg xmlns="http://www.w3.org/2000/svg" xmlns:xlink="http://www.w3.org/1999/xlink" fill="none" version="1.1" width="54" height="54" viewBox="0 0 54 54"><defs><mask id="master_svg0_492_4999" style="mask-type:alpha" maskUnits="userSpaceOnUse"><g><rect x="0" y="0" width="53.846153259277344" height="53.846153259277344" rx="0" fill="#FFFFFF" fill-opacity="1"/></g></mask></defs><g><g></g><g mask="url(#master_svg0_492_4999)"><g><path d="M22.536977929687502,7.57083L9.5638139296875,17.661099999999998Q8.5871239296875,18.4207,8.0435009296875,19.5323Q7.4998779296875,20.6438,7.4998779296875,21.8811L7.4998779296875,42.1538Q7.4998779296875,44.3683,9.0657305296875,45.9342Q10.6315779296875,47.5,12.8460279296875,47.5L41.1536779296875,47.5Q43.3681779296875,47.5,44.9340779296875,45.9342Q46.4998779296875,44.3683,46.4998779296875,42.1538L46.4998779296875,21.8811Q46.4998779296875,20.6438,45.9562779296875,19.5323Q45.4126779296875,18.4207,44.4359779296875,17.661099999999998L31.4627779296875,7.5708400000000005Q29.4940779296875,6.0395874,26.9998779296875,6.0395858Q24.5057779296875,6.0395843,22.536977929687502,7.57083ZM10.4998779296875,21.8811Q10.4998779296875,20.7336,11.4056379296875,20.0292L24.378877929687498,9.93889Q25.5350779296875,9.03958,26.9998779296875,9.03959Q28.4646779296875,9.03959,29.6209779296875,9.93889L42.5940779296875,20.0291Q43.4998779296875,20.7336,43.4998779296875,21.8811L43.4998779296875,42.1538Q43.4998779296875,43.1257,42.8126779296875,43.8128Q42.1255779296875,44.5,41.1536779296875,44.5L12.8460279296875,44.5Q11.8742179296875,44.5,11.1870479296875,43.8128Q10.4998779296875,43.1257,10.4998779296875,42.1538L10.4998779296875,21.8811Z" fill-rule="evenodd" fill="#232529" fill-opacity="1"/></g><g transform="matrix(1,0,0,-1,0,77.99999237060547)"><path d="M27.0435079296875,39.001222845302735L27.0144179296875,39.00171711530273C26.7355079296875,38.986055585302736,26.4526879296875,39.07735378530273,26.2309979296875,39.273037185302734L25.280037929687502,40.11242618530274L24.0225779296875,41.245006185302735L23.1820279296875,42.015846185302735L22.4936079296875,42.666166185302735L22.1393979296875,43.01283618530273L21.9232179296875,43.23039618530274L21.7204679296875,43.43968618530273L21.4367479296875,43.74295618530273L21.2580179296875,43.94122618530273L21.000107929687502,44.23827618530274L20.831757929687498,44.43929618530274C19.6166189296875,45.915206185302736,18.9998779296875,47.36529618530273,18.9998779296875,48.85407618530273C18.9998779296875,50.08939618530273,19.5058319296875,51.23829618530274,20.4353579296875,52.150096185302736C21.2798679296875,52.999396185302736,22.4291979296875,53.49989618530273,23.6393979296875,53.53999618530273C23.7131179296875,53.54319618530273,23.7984979296875,53.545196185302736,23.8838879296875,53.54549618530274L24.1195779296875,53.540696185302735C25.1336279296875,53.499596185302735,26.0535579296875,53.190896185302734,26.8847079296875,52.615996185302734L26.9984279296875,52.53309618530273L27.1102179296875,52.613896185302735C28.005467929687498,53.234796185302734,29.0045779296875,53.54549618530274,30.111977929687498,53.54549618530274C30.200277929687502,53.545196185302736,30.285677929687502,53.54319618530273,30.3709779296875,53.53949618530274C31.5697779296875,53.499396185302736,32.7188779296875,52.999196185302736,33.5734779296875,52.141096185302736C34.4940779296875,51.236996185302736,34.9998779296875,50.08829618530274,34.9998779296875,48.85407618530273C34.9998779296875,47.43976618530273,34.4416779296875,46.059346185302736,33.3435779296875,44.66097618530274L33.0813779296875,44.33861618530273L32.8252779296875,44.039216185302735L32.5588779296875,43.741336185302735L32.3718779296875,43.53992618530273L32.0719779296875,43.228086185302736L31.7421779296875,42.898006185302734L31.3751779296875,42.54227618530273L30.8152779296875,42.015266185302735L30.3329779296875,41.570866185302734L29.1760779296875,40.523636185302735L28.7255279296875,40.119556185302734L27.7316579296875,39.26470718530273C27.5337879296875,39.094571985302736,27.2895279296875,39.006429105302736,27.0435079296875,39.001222845302735Z" fill="#232529" fill-opacity="1"/></g></g></g></svg>