<svg xmlns="http://www.w3.org/2000/svg" xmlns:xlink="http://www.w3.org/1999/xlink" fill="none" version="1.1" width="112" height="112" viewBox="0 0 112 112"><defs><filter id="master_svg0_77_2977" filterUnits="objectBoundingBox" color-interpolation-filters="sRGB" x="-22.312437057495117" y="-18.374948024749756" width="92.6248779296875" height="91.69883346557617"><feFlood flood-opacity="0" result="BackgroundImageFix"/><feColorMatrix in="SourceAlpha" type="matrix" values="0 0 0 0 0 0 0 0 0 0 0 0 0 0 0 0 0 0 127 0"/><feOffset dy="3.9374890327453613" dx="0"/><feGaussianBlur stdDeviation="5.578109264373779"/><feColorMatrix type="matrix" values="0 0 0 0 0.47588032484054565 0 0 0 0 0 0 0 0 0 0.9533231258392334 0 0 0 0.21011801064014435 0"/><feBlend mode="normal" in2="BackgroundImageFix" result="effect1_dropShadow"/><feBlend mode="normal" in="SourceGraphic" in2="effect1_dropShadow" result="shape"/></filter><linearGradient x1="0.2511482536792755" y1="-0.2222280502319336" x2="0.36336198449134827" y2="0.6446866989135742" id="master_svg1_77_0023"><stop offset="0%" stop-color="#FFFFFF" stop-opacity="0.4059768319129944"/><stop offset="100%" stop-color="#FFFFFF" stop-opacity="1"/></linearGradient></defs><g><g style="opacity:0.20000000298023224;"><ellipse cx="56" cy="56" rx="56" ry="56" fill="#FFFFFF" fill-opacity="1"/></g><g filter="url(#master_svg0_77_2977)"><path d="M54.605599999999995,32L57.9092,32L57.9092,32.299805L54.605599999999995,32.299805L54.605599999999995,32ZM60.9132,35.19019L60.9132,32.0798645C71.8115,34.34634,80,44.0049,80,55.576899999999995C80,67.14779999999999,71.8115,76.8063,60.9132,79.074L60.9132,75.9636C70.12270000000001,73.7539,76.96719999999999,65.4647,76.96719999999999,55.576899999999995C76.96719999999999,45.689099999999996,70.12270000000001,37.39879,60.9132,35.19019ZM50.6272,32.180571L50.6272,35.30479C41.65047,37.67661,35.03393,45.8547,35.03393,55.576899999999995C35.03393,65.298,41.65047,73.4761,50.6272,75.84790000000001L50.6272,78.9733C39.95814,76.53309999999999,32,66.98570000000001,32,55.576899999999995C32,44.1693,39.95814,34.61952,50.6272,32.180571ZM54.605599999999995,32.539417L57.9092,32.539417L57.9092,33.6715L54.605599999999995,33.6715L54.605599999999995,32.539417ZM49.2127,34.056960000000004C49.2127,33.74673,48.9627,33.4967,48.6525,33.4967C48.3422,33.4967,48.0899,33.74673,48.0899,34.056960000000004C48.0899,34.36718,48.3422,34.61837,48.6525,34.61837C48.9627,34.61837,49.2127,34.36718,49.2127,34.056960000000004ZM62.66,34.056960000000004C62.66,34.36718,62.91,34.61837,63.2202,34.61837C63.5304,34.61837,63.7805,34.36718,63.7805,34.056960000000004C63.7805,33.74673,63.5304,33.4967,63.2202,33.4967C62.91,33.4967,62.66,33.74673,62.66,34.056960000000004ZM54.605599999999995,33.91227L57.9092,33.91227L57.9092,34.6531L54.605599999999995,34.6531L54.605599999999995,33.91227ZM54.605599999999995,34.89271L57.9092,34.89271L57.9092,35.82222L54.605599999999995,35.82222L54.605599999999995,34.89271ZM65.70259999999999,35.52183C65.70259999999999,35.8361,65.9608,36.08906,66.275,36.08266C66.584,36.08266,66.8364,35.83147,66.8364,35.52241C66.8364,35.21219,66.584,34.961,66.275,34.961C65.9608,34.95461,65.70259999999999,35.20756,65.70259999999999,35.52183ZM46.1591,35.52241C46.1591,35.21219,45.906800000000004,34.961,45.5965,34.961C45.2875,34.961,45.0351,35.21219,45.0351,35.52241C45.0351,35.83148,45.2875,36.08266,45.5965,36.08266C45.906800000000004,36.08266,46.1591,35.83147,46.1591,35.52241ZM54.605599999999995,36.06183L57.9092,36.06183L57.9092,36.99134L54.605599999999995,36.99134L54.605599999999995,36.06183ZM44.101,36.67533C44.101,36.3651,43.8498,36.11507,43.5407,36.11507C43.2305,36.11507,42.9782,36.3651,42.9782,36.67533C42.9782,36.98555,43.2305,37.23674,43.5407,37.23674C43.8498,37.23674,44.101,36.98555,44.101,36.67533ZM67.77170000000001,36.67533C67.77170000000001,36.98555,68.02170000000001,37.23674,68.33189999999999,37.23674C68.6421,37.23674,68.89330000000001,36.98555,68.89330000000001,36.67533C68.89330000000001,36.3651,68.6422,36.11507,68.33189999999999,36.11507C68.02170000000001,36.11507,67.77170000000001,36.3651,67.77170000000001,36.67533ZM54.605599999999995,37.230959999999996L57.9092,37.230959999999996L57.9092,38.160470000000004L54.605599999999995,38.160470000000004L54.605599999999995,37.230959999999996ZM42.3242,37.98567C42.3242,37.67545,42.071799999999996,37.4231,41.76275,37.4231C41.45369,37.4231,41.20134,37.67545,41.20134,37.98567C41.20134,38.29589,41.45369,38.54592,41.76275,38.54592C42.071799999999996,38.54592,42.3242,38.29589,42.3242,37.98567ZM69.54740000000001,37.98567C69.54740000000001,38.29589,69.79849999999999,38.54592,70.1088,38.54592C70.419,38.54592,70.6713,38.29589,70.6713,37.98567C70.6713,37.67545,70.419,37.4231,70.1088,37.4231C69.79849999999999,37.4231,69.54740000000001,37.67545,69.54740000000001,37.98567ZM54.606,38.40121L57.9096,38.40121L57.9096,38.91593Q62.192,38.84128,68.1964,39.26361L68.15010000000001,39.76251Q68.0077,39.91878,67.80969999999999,40.24984L58.8746,40.24984C58.387299999999996,39.97666,57.8583,39.740520000000004,57.286500000000004,39.54373C55.377700000000004,39.02631,53.668,39.43145,52.3565,40.24984L50.0402,40.24984C51.1156,39.66412,52.439800000000005,39.26361,54.1379,39.10734Q54.8404,39.04257,55.6145,38.998509999999996L54.606,38.998509999999996L54.606,38.40121ZM71.26169999999999,39.54257C71.26169999999999,39.85279,71.51400000000001,40.10398,71.82419999999999,40.10398C72.13839999999999,40.11036,72.3966,39.85741,72.3966,39.54315C72.3966,39.22889,72.13839999999999,38.97594,71.82419999999999,38.98232C71.51400000000001,38.98232,71.26169999999999,39.23351,71.26169999999999,39.54257ZM39.49886,39.54315C39.49886,39.84852,39.74312,40.09778,40.04842,40.10398C40.35749,40.10398,40.61099,39.85279,40.61099,39.54257C40.61099,39.23351,40.35749,38.98232,40.04842,38.98232C39.74312,38.98852,39.49886,39.23778,39.49886,39.54315ZM49.6293,40.48829L51.9965,40.48829C51.53,40.82398,51.1225,41.2106,50.7857,41.62037L48.2217,41.62037C48.6396,41.20018,49.102599999999995,40.81935,49.6293,40.48829ZM67.672,40.48829C67.51570000000001,40.77536,67.3398,41.15157,67.1754,41.62037L60.7522,41.62037C60.3035,41.19363,59.812,40.81427,59.2856,40.48829L67.672,40.48829ZM38.03892,41.30551C38.03892,41.614580000000004,38.28895,41.86577,38.59917,41.86577C38.9094,41.86577,39.15943,41.614580000000004,39.15943,41.30551C39.15943,40.99529,38.9094,40.74295,38.59917,40.74295C38.28895,40.74295,38.03892,40.99529,38.03892,41.30551ZM72.71209999999999,41.30551C72.71209999999999,41.614580000000004,72.9633,41.86577,73.2735,41.86577C73.5837,41.86577,73.8337,41.614580000000004,73.8337,41.30551C73.8337,40.99529,73.5837,40.74295,73.2735,40.74295C72.9633,40.74295,72.71209999999999,40.99529,72.71209999999999,41.30551ZM54.606,41.7419L57.9096,41.7419L57.9096,42.6714L54.606,42.6714L54.606,41.7419ZM47.9925,41.86114L50.5993,41.86114C50.4187,42.1042,50.2625,42.3531,50.1328,42.602000000000004L47.3756,42.602000000000004C47.5712,42.3438,47.7749,42.0961,47.9925,41.86114ZM60.9941,41.86114L67.0955,41.86114C67.0226,42.088,66.952,42.3357,66.8883,42.602000000000004L61.64,42.602000000000004C61.443200000000004,42.346199999999996,61.227900000000005,42.0996,60.9941,41.86114ZM74.05250000000001,43.19C74.05250000000001,43.5002,74.30369999999999,43.751400000000004,74.6139,43.751400000000004C74.923,43.751400000000004,75.1742,43.5002,75.1742,43.19C75.1742,42.8798,74.923,42.6298,74.6139,42.6298C74.3041,42.6291,74.05250000000001,42.8801,74.05250000000001,43.19ZM36.69848,43.19C36.69784,43.4999,36.948859999999996,43.751400000000004,37.25874,43.751400000000004C37.56861,43.751400000000004,37.819630000000004,43.4999,37.81899,43.19C37.81899,42.8798,37.56896,42.6298,37.25874,42.6298C36.94851,42.6298,36.69848,42.8798,36.69848,43.19ZM49.749700000000004,43.6195C49.8076,43.366,49.896699999999996,43.1043,50.0159,42.8416L47.199600000000004,42.8416C47.0399,43.0638,46.887100000000004,43.294200000000004,46.7389,43.5303C46.6903,43.6102,46.6405,43.6901,46.5919,43.771100000000004L46.4472,44.0107C46.2724,44.312799999999996,46.1011,44.6231,45.9333,44.9414L49.6906,44.9414C49.6639,44.6601,49.66,44.3771,49.6791,44.0952Q49.687200000000004,43.9065,49.749700000000004,43.6195ZM66.6695,43.771100000000004L62.4086,43.771100000000004C62.2335,43.448499999999996,62.037,43.138,61.8206,42.8416L66.83160000000001,42.8416C66.76910000000001,43.1298,66.71350000000001,43.438900000000004,66.6695,43.771100000000004ZM54.606,42.8427L57.9096,42.8427L57.9096,43.7722L54.606,43.7722L54.606,42.8427ZM48.175399999999996,44.3892C47.894800000000004,44.3892,47.6673,44.161699999999996,47.6673,43.8811C47.6673,43.6004,47.894800000000004,43.3729,48.175399999999996,43.3729C48.4567,43.3729,48.6836,43.5998,48.6836,43.8811C48.6836,44.161699999999996,48.4561,44.3892,48.175399999999996,44.3892ZM54.606,44.0107L57.9096,44.0107L57.9096,44.940200000000004L54.606,44.940200000000004L54.606,44.0107ZM62.9388,44.9414C62.826499999999996,44.63,62.6922,44.3186,62.534800000000004,44.0119L66.6406,44.0119C66.60589999999999,44.3059,66.5781,44.6138,66.5642,44.9414L62.9388,44.9414ZM35.66942,45.1393C35.66942,45.4495,35.920609999999996,45.699600000000004,36.22968,45.699600000000004C36.5399,45.699600000000004,36.79109,45.4495,36.79109,45.1393C36.79109,44.8291,36.5399,44.5767,36.22968,44.5767C35.920609999999996,44.5767,35.66942,44.8291,35.66942,45.1393ZM75.643,44.5767C75.33279999999999,44.5767,75.08160000000001,44.8291,75.08160000000001,45.1393C75.08160000000001,45.4492,75.3331,45.7002,75.643,45.699600000000004C75.952,45.699600000000004,76.20320000000001,45.4495,76.20320000000001,45.1393C76.20320000000001,44.8291,75.952,44.5767,75.643,44.5767ZM54.606,45.181L57.9096,45.181L57.9096,46.1105L54.606,46.1105L54.606,45.181ZM49.7173,45.181C49.7555,45.4785,49.818,45.7899,49.906,46.1105L45.4749,46.1105C45.519999999999996,45.9207,45.5709,45.7274,45.627700000000004,45.5294C45.6867,45.4125,45.748,45.2967,45.8071,45.181L49.7173,45.181ZM63.266400000000004,46.1105C63.207300000000004,45.8037,63.1263,45.4924,63.022099999999995,45.181L66.5526,45.181C66.548,45.3153,66.5457,45.453,66.5445,45.5919C66.5457,45.7725,66.548,45.945,66.548,46.1117L63.266400000000004,46.1117L63.266400000000004,46.1105ZM54.606,46.3501L57.9096,46.3501L57.9096,47.2784L54.606,47.2784L54.606,46.3501ZM49.9754,46.3501C50.068,46.6534,50.1826,46.9648,50.3215,47.2785L45.2584,47.2785C45.2954,46.981,45.3475,46.6719,45.4193,46.3501L49.9754,46.3501ZM63.396,47.2113C63.386700000000005,46.93,63.3578,46.643,63.309200000000004,46.3501L66.5503,46.3501C66.5538,46.6916,66.5573,46.9983,66.56190000000001,47.2785L63.3972,47.2785C63.3972,47.2553,63.396,47.2333,63.396,47.2113ZM34.73297,47.056200000000004C34.73297,47.3664,34.98531,47.6165,35.29554,47.6165C35.605760000000004,47.6165,35.85579,47.3664,35.85579,47.056200000000004C35.85579,46.746,35.605760000000004,46.4936,35.29554,46.4936C34.98531,46.4936,34.73297,46.746,34.73297,47.056200000000004ZM76.5771,46.4936C76.26689999999999,46.4936,76.01570000000001,46.746,76.01570000000001,47.056200000000004C76.01570000000001,47.3664,76.26689999999999,47.6165,76.5771,47.6165C76.88730000000001,47.6165,77.1374,47.3664,77.1374,47.056200000000004C77.1374,46.746,76.88730000000001,46.4936,76.5771,46.4936ZM54.606,47.518100000000004L57.910799999999995,47.518100000000004L57.910799999999995,48.4476L54.7645,48.4476L54.606,48.327200000000005L54.606,47.518100000000004ZM50.433800000000005,47.518100000000004C50.580799999999996,47.8283,50.753299999999996,48.1374,50.9501,48.4476L45.1971,48.4476C45.1901,48.150099999999995,45.2017,47.841,45.2341,47.518100000000004L50.433800000000005,47.518100000000004ZM63.3752,48.4476C63.396,48.1732,63.4076,47.863,63.4018,47.518100000000004L66.56649999999999,47.518100000000004C66.5758,47.8758,66.5874,48.182500000000005,66.607,48.4476L63.3752,48.4476ZM33.91574,49.0541C33.91574,49.3644,34.16809,49.6155,34.47715,49.6155C34.78622,49.6155,35.03856,49.3644,35.03856,49.0541C35.03856,48.7451,34.78622,48.4939,34.47715,48.4939C34.16808,48.4939,33.91574,48.7451,33.91574,49.0541ZM77.39439999999999,48.4939C77.08529999999999,48.4939,76.8341,48.7451,76.8341,49.0541C76.8341,49.3644,77.08529999999999,49.6155,77.39439999999999,49.6155C77.7046,49.6155,77.95689999999999,49.3644,77.95689999999999,49.0541C77.95689999999999,48.7451,77.7046,48.4939,77.39439999999999,48.4939ZM55.0794,48.687200000000004L57.910799999999995,48.687200000000004L57.910799999999995,49.6167L56.3029,49.6167L55.0794,48.687200000000004ZM51.108599999999996,48.687200000000004C51.323899999999995,49.0021,51.5659,49.3134,51.8356,49.6167L45.3221,49.6167C45.2619,49.3215,45.2225,49.0113,45.2052,48.687200000000004L51.108599999999996,48.687200000000004ZM66.80850000000001,49.6167L63.1911,49.6167C63.2583,49.3678,63.3161,49.062200000000004,63.354299999999995,48.687200000000004L66.62559999999999,48.687200000000004C66.6626,49.0831,66.7182,49.379400000000004,66.80850000000001,49.6167ZM56.6178,49.856300000000005L57.910799999999995,49.856300000000005L57.910799999999995,50.8391L57.8378,50.7847L56.6178,49.856300000000005ZM45.6867,50.7847C45.5594,50.490700000000004,45.4552,50.1828,45.3765,49.856300000000005L52.0578,49.856300000000005C52.3634,50.177,52.7014,50.4895,53.076499999999996,50.7847L45.6867,50.7847ZM67.5736,50.5775Q66.482,50.5775,62.7107,50.609899999999996Q62.929500000000004,50.4363,63.1194,49.8575L66.91380000000001,49.8575C67.0608,50.128299999999996,67.2715,50.333200000000005,67.5736,50.5775ZM34.7219,50.866299999999995C34.7219,50.552,34.46376,50.299099999999996,34.14956,50.3054C33.8405,50.3054,33.58815,50.5566,33.58815,50.865700000000004C33.58815,51.1759,33.8405,51.427099999999996,34.14956,51.427099999999996C34.46376,51.433499999999995,34.7219,51.180499999999995,34.7219,50.866299999999995ZM77.723,51.4273C78.0329,51.427,78.28370000000001,51.1755,78.2834,50.865700000000004C78.2834,50.5566,78.0322,50.3054,77.7219,50.3054C77.41210000000001,50.3057,77.16120000000001,50.5571,77.16149999999999,50.8669C77.1618,51.1768,77.4132,51.4277,77.723,51.4273ZM46.3534,51.9538C46.1428,51.6609,45.9552,51.3519,45.7978,51.0243L53.3936,51.0243C53.852000000000004,51.36,54.3614,51.6725,54.9239,51.9538L46.3534,51.9538ZM46.5329,52.1934L55.4298,52.1934C55.762,52.3404,56.1104,52.4782,56.4762,52.604299999999995C56.948499999999996,52.7652,57.426500000000004,52.94,57.908100000000005,53.1241L47.3883,53.1241C47.0758,52.8301,46.7898,52.521,46.5329,52.1934ZM34.47804,52.7832C34.47804,52.4778,34.23378,52.2285,33.92847,52.222300000000004C33.61825,52.222300000000004,33.36591,52.4735,33.36591,52.7838C33.36591,53.0928,33.61825,53.344,33.92847,53.344C34.23378,53.3378,34.47804,53.088499999999996,34.47804,52.7832ZM77.9442,53.344C78.2544,53.344,78.5056,53.0928,78.5056,52.7838C78.5056,52.4735,78.2544,52.222300000000004,77.9442,52.222300000000004C77.634,52.222300000000004,77.3839,52.4735,77.3839,52.7838C77.3839,53.0928,77.634,53.344,77.9442,53.344ZM48.8074,54.2909C48.3988,53.9934,48.008700000000005,53.685500000000005,47.6464,53.3625L58.518100000000004,53.3625C59.2335,53.6496,59.9477,53.9598,60.647999999999996,54.2909L48.8074,54.2909ZM34.312780000000004,55.0549C34.312780000000004,54.7446,34.06275,54.4946,33.75253,54.4946C33.44311,54.4946,33.19227,54.745400000000004,33.19227,55.0549C33.19227,55.3643,33.44311,55.6151,33.75253,55.6151C34.06275,55.6151,34.312780000000004,55.3651,34.312780000000004,55.0549ZM78.12010000000001,55.6151C78.43039999999999,55.6151,78.68039999999999,55.3651,78.68039999999999,55.0549C78.68039999999999,54.7446,78.43039999999999,54.4946,78.12010000000001,54.4946C77.8099,54.4946,77.5599,54.7446,77.5599,55.0549C77.5599,55.3651,77.8099,55.6151,78.12010000000001,55.6151ZM50.3041,55.3153C49.9083,55.056,49.5182,54.7956,49.1408,54.5305L61.1446,54.5305C61.7453,54.8257,62.3334,55.1359,62.8959,55.46L50.6074,55.46C50.506699999999995,55.4125,50.406,55.3651,50.3041,55.3153ZM53.0441,56.6303C52.427099999999996,56.3328,51.7823,56.0249,51.105199999999996,55.7008L63.3057,55.7008C63.8046,56.0006,64.2838,56.3108,64.73179999999999,56.6303L53.0441,56.6303ZM33.69928,56.8201C33.388980000000004,56.8292,33.1451,57.0886,33.15523,57.3989C33.16467,57.7084,33.42337,57.951499999999996,33.73285,57.9418C34.04317,57.9324,34.2872,57.6733,34.27805,57.363C34.26879,57.0539,34.0095,56.810900000000004,33.69928,56.8201ZM77.5946,57.363C77.5855,57.6733,77.8295,57.9324,78.13980000000001,57.9418C78.4488,57.9506,78.70660000000001,57.7078,78.71629999999999,57.3989C78.7255,57.0887,78.4825,56.8294,78.1734,56.8201C77.8632,56.810900000000004,77.60390000000001,57.0539,77.5946,57.363ZM55.462199999999996,57.7994C54.8568,57.5019,54.2178,57.194,53.5441,56.8699L65.0594,56.8699C65.4657,57.1697,65.8454,57.4822,66.19380000000001,57.7994L55.462199999999996,57.7994ZM57.763400000000004,58.9674C57.195,58.6653,56.5908,58.3585,55.9484,58.039L66.4473,58.039C66.7622,58.3423,67.0446,58.6525,67.2935,58.9674L57.763400000000004,58.9674ZM33.94815,59.0854C33.63841,59.0953,33.39535,59.3545,33.40526,59.6642C33.41565,59.9737,33.67448,60.216499999999996,33.98404,60.2071C34.29426,60.1978,34.53619,59.9386,34.52693,59.628299999999996C34.51702,59.3186,34.25789,59.075500000000005,33.94815,59.0854ZM77.3457,59.628299999999996C77.3351,59.9383,77.5786,60.197900000000004,77.8886,60.2071C78.1982,60.216899999999995,78.4572,59.9739,78.4671,59.6643C78.4769,59.3547,78.23400000000001,59.0957,77.92439999999999,59.0858C77.6148,59.0758,77.3557,59.3187,77.3457,59.628299999999996ZM59.8458,60.1365C59.333,59.8263,58.790099999999995,59.5184,58.2114,59.207L67.4752,59.207C67.6986,59.5126,67.88730000000001,59.821600000000004,68.0389,60.1365L59.8458,60.1365ZM49.8724,60.1365L43.5128,60.1365L43.5082,60.0231L49.8365,59.9918L49.8724,60.1365ZM49.9604,60.4895Q49.2415,60.5984,48.8815,61.3056L44.4805,61.3056C44.240899999999996,60.978,43.9411,60.6655,43.5719,60.3761L49.9314,60.3761L49.9604,60.4895ZM61.214,61.0197C60.9003,60.802099999999996,60.5751,60.587900000000005,60.2359,60.3761L68.1489,60.3761C68.27850000000001,60.682900000000004,68.3711,60.9931,68.42320000000001,61.3056L61.6134,61.3056C61.4872,61.2072,61.3541,61.112300000000005,61.214,61.0197ZM76.90469999999999,62.0163C76.8955,62.3266,77.1374,62.585899999999995,77.4476,62.5951C77.7573,62.6049,78.0164,62.3619,78.0264,62.0522C78.0356,61.742000000000004,77.7926,61.4839,77.48230000000001,61.4735C77.173,61.4641,76.9145,61.707,76.90469999999999,62.0163ZM33.84629,62.0522C33.85555,62.3625,34.11484,62.6044,34.42506,62.5951C34.73528,62.585899999999995,34.97721,62.3266,34.96795,62.0163C34.95869,61.707300000000004,34.6994,61.464200000000005,34.38918,61.4735C34.08011,61.4839,33.83703,61.742000000000004,33.84629,62.0522ZM44.646100000000004,61.5452L48.783100000000005,61.5452C48.7241,61.722300000000004,48.6871,61.9307,48.6824,62.1726C48.6813,62.2722,48.679,62.3729,48.677800000000005,62.4724L45.0848,62.4724C44.9794,62.156400000000005,44.833600000000004,61.846199999999996,44.646100000000004,61.5452ZM61.9097,61.5452L68.4545,61.5452C68.4915,61.847300000000004,68.50999999999999,62.1576,68.5147,62.473600000000005L62.7686,62.473600000000005C62.5383,62.1529,62.2535,61.8427,61.9097,61.5452ZM57.910799999999995,61.9932L57.910799999999995,62.473600000000005L57.1329,62.473600000000005Q57.1502,62.2004,57.0993,61.9399L57.910799999999995,61.9932ZM55.444,62.473600000000005L54.6071,62.473600000000005L54.6071,62.3474C54.849000000000004,62.328900000000004,55.1477,62.346199999999996,55.444,62.473600000000005ZM57.910799999999995,62.7132L57.910799999999995,63.642700000000005L54.6071,63.642700000000005L54.6071,62.7132L55.827200000000005,62.7132C55.8364,62.7201,55.8445,62.725899999999996,55.852599999999995,62.734C56.7023,63.3301,57.004400000000004,63.083600000000004,57.0982,62.7132L57.910799999999995,62.7132ZM45.1589,62.7132L48.6755,62.7132C48.672,63.0327,48.6709,63.3475,48.6709,63.642700000000005L45.3244,63.642700000000005C45.2954,63.3313,45.2445,63.0199,45.1589,62.7132ZM68.5158,62.7132C68.5147,63.0199,68.4962,63.3313,68.4649,63.642700000000005L63.3995,63.642700000000005C63.278999999999996,63.317099999999996,63.1237,63.0055,62.936499999999995,62.7132L68.5158,62.7132ZM54.606,63.8823L57.9096,63.8823L57.9096,64.8118L54.606,64.8118L54.606,63.8823ZM48.6697,63.8823C48.6709,64.2435,48.6732,64.5641,48.6766,64.8118L45.312799999999996,64.8118C45.3417,64.5051,45.353300000000004,64.1937,45.338300000000004,63.8823L48.6697,63.8823ZM68.436,63.8823C68.3955,64.1925,68.34219999999999,64.5039,68.2716,64.8118L63.6773,64.8118C63.6402,64.5016,63.5777,64.1902,63.4805,63.8823L68.436,63.8823ZM36.06993,64.67179999999999C36.06068,64.3639,35.80138,64.11959999999999,35.49232,64.1289C35.18219,64.1383,34.93853,64.39750000000001,34.94827,64.7076C34.95869,65.0167,35.21682,65.2598,35.52705,65.2505C35.837270000000004,65.2413,36.08035,64.982,36.06993,64.67179999999999ZM75.8027,64.67179999999999C75.7921,64.98179999999999,76.0356,65.2413,76.34559999999999,65.2505C76.6549,65.2599,76.9134,65.017,76.92320000000001,64.7076C76.9337,64.3974,76.6906,64.13810000000001,76.3803,64.1289C76.0701,64.11959999999999,75.812,64.3639,75.8027,64.67179999999999ZM54.606,65.0526L57.9096,65.0526L57.9096,65.9821L54.606,65.9821L54.606,65.0526ZM68.2137,65.0526C68.1339,65.3663,68.0401,65.6777,67.92779999999999,65.9821L63.6947,65.9821C63.719,65.6765,63.723600000000005,65.3651,63.6993,65.0526L68.2137,65.0526ZM48.6824,65.3223Q48.7588,65.58279999999999,48.9336,65.9821L45.1288,65.9821C45.1924,65.6823,45.2491,65.3698,45.2885,65.0526L48.679,65.0526Q48.6813,65.2228,48.6824,65.3223ZM54.606,66.2217L57.9096,66.2217L57.9096,67.15010000000001L54.606,67.15010000000001L54.606,66.2217ZM50.4268,68.3192L44.4736,68.3192C44.4736,68.318,44.4747,68.31569999999999,44.4747,68.3146C44.5465,68.053,44.646100000000004,67.7393,44.7526,67.3897C44.7745,67.311,44.7989,67.2311,44.8232,67.15010000000001C44.91,66.86070000000001,44.995599999999996,66.5481,45.072,66.2217L49.040099999999995,66.2217C49.1674,66.4961,49.3341,66.8144,49.5413,67.15010000000001C49.5911,67.2288,49.641999999999996,67.3098,49.6964,67.3897C49.9025,67.6976,50.1456,68.0136,50.4268,68.3192ZM67.8364,66.2217C67.7098,66.5394,67.5649,66.8493,67.4023,67.15010000000001L63.5685,67.15010000000001C63.5905,66.98689999999999,63.606700000000004,66.8132,63.6148,66.6303C63.6368,66.4961,63.6565,66.3606,63.6727,66.2217L67.8364,66.2217ZM37.06427,66.8792C37.05389,66.5697,36.79505,66.3269,36.4855,66.3363C36.17656,66.3459,35.93371,66.6038,35.94261,66.9128C35.95181,67.2227,36.21026,67.4667,36.52022,67.458C36.83035,67.4485,37.07401,67.1893,37.06427,66.8792ZM74.8084,66.8792C74.79910000000001,67.1894,75.04220000000001,67.4487,75.35130000000001,67.458C75.66159999999999,67.4671,75.9207,67.2231,75.93010000000001,66.9128C75.9393,66.6049,75.6962,66.3467,75.3872,66.3363C75.077,66.327,74.8177,66.5701,74.8084,66.8792ZM54.606,67.3897L57.9096,67.3897L57.9096,68.3192L54.606,68.3192L54.606,67.3897ZM67.2668,67.3897C67.07759999999999,67.71549999999999,66.86359999999999,68.0262,66.6267,68.3192L63.2363,68.3192C63.359,68.053,63.462,67.7439,63.5291,67.3897L67.2668,67.3897ZM38.3121,68.7949C38.3021,68.48519999999999,38.04303,68.2422,37.73333,68.2521C37.42326,68.2612,37.17979,68.52080000000001,37.19044,68.83080000000001C37.1997,69.1387,37.45899,69.38300000000001,37.76806,69.3737C38.07818,69.3643,38.32185,69.1051,38.3121,68.7949ZM73.5745,68.7954C73.56479999999999,69.0997,73.7995,69.3563,74.1035,69.3737C74.4137,69.38300000000001,74.673,69.1387,74.6822,68.83080000000001C74.69149999999999,68.5206,74.44720000000001,68.2613,74.13929999999999,68.2521C73.8349,68.25,73.58420000000001,68.4911,73.5745,68.7954ZM54.606,68.55879999999999L57.9096,68.55879999999999L57.9096,69.2556L54.606,69.2556L54.606,68.55879999999999ZM51.885400000000004,69.48830000000001L44.013999999999996,69.48830000000001C44.1699,69.1902,44.2996,68.8792,44.4018,68.55879999999999L50.6572,68.55879999999999C51.011399999999995,68.9049,51.4189,69.2267,51.885400000000004,69.48830000000001ZM66.423,68.55879999999999C66.11930000000001,68.90209999999999,65.7815,69.21350000000001,65.4148,69.48830000000001L62.321799999999996,69.48830000000001C62.5985,69.2707,62.8809,68.9709,63.1124,68.55879999999999L66.423,68.55879999999999ZM54.606,69.4952L57.9096,69.4952L57.9096,70.06L61.2441,70.02770000000001Q61.564800000000005,69.96520000000001,61.9711,69.7279L65.0698,69.7279C64.3047,70.2211,63.406400000000005,70.5695,62.3669,70.7142Q58.5569,70.82249999999999,57.9096,70.8604L57.9096,71.1702L54.606,71.1702L54.606,70.8428L43.4156,70.74539999999999L42.9155,70.963Q43.4144,70.5347,43.8821,69.7279L52.364599999999996,69.7279C52.691,69.8703,53.0417,69.9837,53.4203,70.0601L54.606,70.08619999999999L54.606,69.4952ZM72.1125,70.8334C72.1018,71.1434,72.34530000000001,71.40299999999999,72.6554,71.4122C72.9647,71.42150000000001,73.22319999999999,71.1786,73.233,70.86930000000001C73.24340000000001,70.559,73.00030000000001,70.2998,72.6901,70.29050000000001C72.3805,70.2804,72.1215,70.52369999999999,72.1125,70.8334ZM39.7602,70.8334C39.75075,70.5239,39.49206,70.2808,39.18258,70.29050000000001C38.872460000000004,70.29990000000001,38.62879,70.5592,38.63853,70.86930000000001C38.64891,71.1788,38.90775,71.4216,39.21731,71.4122C39.52737,71.40299999999999,39.77085,71.1434,39.7602,70.8334ZM54.606,71.40979999999999L57.9096,71.40979999999999L57.9096,72.33930000000001L54.606,72.33930000000001L54.606,71.40979999999999ZM70.25919999999999,72.6195C70.249,72.9294,70.4922,73.1887,70.8021,73.1983C71.1114,73.20750000000001,71.3699,72.9647,71.3797,72.6554C71.3902,72.3451,71.1459,72.08590000000001,70.8369,72.0766C70.5272,72.06649999999999,70.26830000000001,72.3098,70.25919999999999,72.6195ZM41.61343,72.6195C41.603989999999996,72.31,41.34529,72.0668,41.03581,72.0766C40.72569,72.086,40.48203,72.3452,40.49177,72.6554C40.50258,72.9647,40.76115,73.2072,41.07054,73.1983C41.38023,73.1883,41.623239999999996,72.92920000000001,41.61343,72.6195ZM54.606,72.5801L57.9096,72.5801L57.9096,73.5096L54.606,73.5096L54.606,72.5801ZM69.0577,73.53970000000001C69.0473,73.85,69.2927,74.10810000000001,69.6006,74.1185C69.9105,74.12780000000001,70.1695,73.8844,70.1794,73.5745C70.18860000000001,73.2654,69.94550000000001,73.0061,69.6353,72.99680000000001C69.32589999999999,72.9871,69.0672,73.2302,69.0577,73.53970000000001ZM42.815,73.53970000000001C42.8057,73.2295,42.5464,72.9876,42.2362,72.99680000000001C41.92687,73.0067,41.683949999999996,73.26509999999999,41.6933,73.5745C41.70256,73.88470000000001,41.96185,74.12780000000001,42.269800000000004,74.1185C42.58,74.10810000000001,42.8242,73.85,42.815,73.53970000000001ZM54.606,73.7492L57.9096,73.7492L57.9096,74.67869999999999L54.606,74.67869999999999L54.606,73.7492ZM44.0929,74.46690000000001C44.083600000000004,74.1572,43.825,73.9137,43.515299999999996,73.9229C43.2054,73.9328,42.9619,74.1917,42.971199999999996,74.5017C42.9812,74.8113,43.2403,75.0544,43.55,75.0445C43.8595,75.0351,44.1026,74.7764,44.0929,74.46690000000001ZM67.7798,74.46690000000001C67.7696,74.7766,68.013,75.0355,68.3227,75.0445C68.63239999999999,75.0544,68.8914,74.8113,68.9014,74.5017C68.91069999999999,74.1914,68.6676,73.9333,68.3574,73.9229C68.04769999999999,73.9137,67.78909999999999,74.1572,67.7798,74.46690000000001ZM54.606,74.91839999999999L57.9096,74.91839999999999L57.9096,75.8467L54.606,75.8467L54.606,74.91839999999999ZM46.7228,75.88380000000001C46.713,75.5738,46.454,75.3304,46.1441,75.3397C45.8344,75.3497,45.5914,75.6088,45.6012,75.9185C45.6104,76.2286,45.8699,76.47200000000001,46.18,76.4614C46.4893,76.4516,46.7322,76.1931,46.7228,75.88380000000001ZM65.1502,75.8827C65.1402,76.1923,65.3831,76.4514,65.6927,76.4614C66.0027,76.47200000000001,66.26230000000001,76.2286,66.2715,75.9185C66.2813,75.6089,66.03829999999999,75.34989999999999,65.7287,75.3401C65.4191,75.33019999999999,65.1601,75.5731,65.1502,75.8827ZM54.606,76.0863L57.9096,76.0863L57.9096,76.76230000000001L54.606,76.76230000000001L54.606,76.0863ZM62.051100000000005,77.2543C62.0407,77.56450000000001,62.286100000000005,77.8227,62.5951,77.83189999999999C62.9054,77.842,63.1648,77.59819999999999,63.1739,77.28790000000001C63.182,76.9788,62.938900000000004,76.7207,62.628699999999995,76.7114C62.319,76.7012,62.0601,76.94460000000001,62.051100000000005,77.2543ZM49.8204,77.2543C49.812,76.9448,49.553399999999996,76.7013,49.244,76.7114C48.933800000000005,76.7207,48.689499999999995,76.9788,48.6988,77.28790000000001C48.7078,77.59819999999999,48.9673,77.842,49.2775,77.83189999999999C49.587,77.82249999999999,49.830200000000005,77.5638,49.8204,77.2543Z" fill-rule="evenodd" fill="url(#master_svg1_77_0023)" fill-opacity="1"/></g></g></svg>