<svg xmlns="http://www.w3.org/2000/svg" xmlns:xlink="http://www.w3.org/1999/xlink" fill="none" version="1.1" width="43.421875" height="43.3759765625" viewBox="0 0 43.421875 43.3759765625"><defs><clipPath id="master_svg0_492_01801"><rect x="14.24755859375" y="14.92626953125" width="15.604721069335938" height="15.604721069335938" rx="0"/></clipPath></defs><g><g><rect x="6.105955600738525" y="9.498533725738525" width="31.20944118499756" height="27.138644218444824" rx="4.070796489715576" fill-opacity="0" stroke-opacity="1" stroke="#121836" fill="none" stroke-width="2.713864326477051"/></g><g clip-path="url(#master_svg0_492_01801)"><g><path d="M21.70916640625,23.8311365625L26.266596406250002,19.2732025625C26.52049640625,19.0192805625,26.93211640625,19.0191965625,27.18611640625,19.2730155625C27.440216406250002,19.5269515625,27.44031640625,19.9388265625,27.18631640625,20.1928565625L21.70916640625,25.6699965625C21.17924640625,26.1999065625,20.32008640625,26.1999065625,19.79017640625,25.6699965625L17.07150540625,22.9513265625C16.81762640625,22.6974465625,16.81762640625,22.2858265625,17.07150540625,22.0319465625C17.32538440625,21.7780665625,17.73700640625,21.7780665625,17.99088640625,22.0319465625L19.79011640625,23.8311865625C20.32005640625,24.3611265625,21.17925640625,24.361096562500002,21.70916640625,23.8311365625" fill="#F29F85" fill-opacity="1"/><path d="M22.18891640625,26.1497465625L27.66601640625,20.6726065625Q28.05531640625,20.2833165625,28.05521640625,19.7327825625Q28.05511640625,19.1822465625,27.66571640625,18.7930969625Q27.27651640625,18.4041275625,26.72621640625,18.4042405625Q26.17591640625,18.4043525625,25.78682640625,18.7934810625L21.22938640625,23.3514165625Q21.03067640625,23.5501465625,20.749636406249998,23.5501565625Q20.46859640625,23.5501665625,20.26986640625,23.351436562499998L18.47063640625,21.5522065625Q18.08150640625,21.1630765625,17.531194406250002,21.1630765625Q16.98088540625,21.1630765625,16.59175790625,21.5522065625Q16.20263040625,21.9413265625,16.20263040625,22.4916365625Q16.20262940625,23.0419465625,16.59175750625,23.4310765625L19.31042640625,26.1497465625Q19.90657640625,26.7458965625,20.74966640625,26.7458965625Q21.59275640625,26.7458965625,22.18891640625,26.1497465625ZM21.79780640625,24.6218565625Q21.33280640625,24.907076562500002,20.74967640625,24.907086562499998Q20.16663640625,24.9071065625,19.70169640625,24.6220265625L20.26991640625,25.1902465625Q20.46863640625,25.388966562500002,20.74966640625,25.388966562500002Q21.03069640625,25.388966562500002,21.22941640625,25.1902465625L21.79780640625,24.6218565625Z" fill-rule="evenodd" fill="#F29F85" fill-opacity="1"/></g></g><g><rect x="12.890625" y="5.427734375" width="2.713864326477051" height="5.427728652954102" rx="1.3569321632385254" fill="#121836" fill-opacity="1"/></g><g><rect x="27.8173828125" y="5.427734375" width="2.713864326477051" height="5.427728652954102" rx="1.3569321632385254" fill="#121836" fill-opacity="1"/></g></g></svg>