<svg xmlns="http://www.w3.org/2000/svg" xmlns:xlink="http://www.w3.org/1999/xlink" fill="none" version="1.1" width="43.42182922363281" height="43.37608337402344" viewBox="0 0 43.42182922363281 43.37608337402344"><defs><clipPath id="master_svg0_492_01763"><rect x="0" y="0" width="43.42182922363281" height="43.37608337402344" rx="0"/></clipPath></defs><g clip-path="url(#master_svg0_492_01763)"><g><path d="M11.331490625,6.98955390625C12.692940625,4.63459490625,15.698140625,3.81767890625,18.069540625000002,5.14742690625L32.249040625,11.79752390625L34.828540625,11.79752390625C37.576340625,11.79752390625,39.804040625,14.01919390625,39.804040625,16.75865390625L39.804040625,33.89675390625C39.804040625,36.63665390625,37.576340625,38.85785390625,34.828540625,38.85785390625L8.594560625,38.85785390625C5.8467706249999996,38.85785390625,3.619140625,36.63665390625,3.619140625,33.89675390625L3.619140625,16.75865390625C3.619140625,14.03320390625,5.823700625,11.82102390625,8.552040625,11.79797390625L11.331490625,6.98955390625ZM34.828540625,14.50356390625L32.129140625000005,14.50446390625C32.022240624999995,14.51725390625,31.914140625,14.51725390625,31.807140625,14.50446390625L8.594560625,14.50401390625C7.345730625,14.50401390625,6.333000625,15.51345390625,6.333000625,16.75865390625L6.333000625,33.89675390625C6.334000625,35.14335390625,7.346610625,36.15305390625,8.594560625,36.15185390625L34.828540625,36.15185390625C36.077440625,36.15185390625,37.090140625,35.14245390625,37.090140625,33.89715390625L37.090140625,16.75865390625C37.089140625,15.51205390625,36.076540625,14.50231390625,34.828540625,14.50356390625M16.769140625,7.521813906249999C15.689040625,6.89727390625,14.306640625,7.26589390625,13.681740625,8.34505390625L11.686100625,11.79752390625L25.875040625,11.79752390625L16.870940625,7.5751339062500005C16.853540625,7.56691390625,16.836340625,7.55832390625,16.819340625000002,7.5493739062500005L16.769140625,7.521813906249999Z" fill="#121836" fill-opacity="1"/></g><g><path d="M24.391413125,20.3570754375C24.666403125000002,19.7552145375,25.377263125,19.4893704375,25.980303125,19.7628674375C26.583403125,20.0354684375,26.850503125,20.7453734375,26.576303125000003,21.3472934375L22.576103125,30.1225734375C22.149683125,31.0575734375,20.817603124999998,31.0575734375,20.391183125,30.1225734375L16.390951125,21.3472934375C16.116809125,20.7453734375,16.383864125,20.0354664375,16.986985125,19.7628674375C17.590033125,19.4893714375,18.300883125,19.7552145375,18.575873125,20.3570754375L21.483643125,26.7351134375L24.391413125,20.3570754375Z" fill="#F29F85" fill-opacity="1"/></g></g></svg>