<svg xmlns="http://www.w3.org/2000/svg" xmlns:xlink="http://www.w3.org/1999/xlink" fill="none" version="1.1" width="43.42182922363281" height="43.37608337402344" viewBox="0 0 43.42182922363281 43.37608337402344"><defs><clipPath id="master_svg0_492_01750"><rect x="0" y="0" width="43.42182922363281" height="43.37608337402344" rx="0"/></clipPath></defs><g clip-path="url(#master_svg0_492_01750)"><g><path d="M13.56836089149,14.232957031249999C13.567262955,15.35557703125,14.478862375,16.26621703125,15.603759375,16.26621703125C16.728649375,16.26621703125,17.640249375,15.35557703125,17.639159375,14.232957031249999C17.640249375,13.11034703125,16.728649375,12.19970703125,15.603759375,12.19970703125C14.478862375,12.19970703125,13.567262955,13.11034703125,13.56836089149,14.232957031249999Z" fill="#F29F85" fill-opacity="1"/></g><g><path d="M25.78125151649,14.232957031249999C25.78015358,15.35557703125,26.691753,16.26621703125,27.81665,16.26621703125C28.94154,16.26621703125,29.85314,15.35557703125,29.85205,14.232957031249999C29.85314,13.11034703125,28.94154,12.19970703125,27.81665,12.19970703125C26.691753,12.19970703125,25.78015358,13.11034703125,25.78125151649,14.232957031249999Z" fill="#F29F85" fill-opacity="1"/></g><g><path d="M21.7114178125,21.01043578125C17.9781478125,21.01043578125,14.9267578125,18.04830578125,14.9267578125,14.38723678125C14.9267578125,13.92128278125,15.3017898125,13.55517578125,15.7791028125,13.55517578125C16.2564178125,13.55517578125,16.6314478125,13.92128278125,16.6314478125,14.38723678125C16.6314478125,17.13303578125,18.915727812500002,19.34631578125,21.7114178125,19.34631578125C24.5071078125,19.34631578125,26.7913578125,17.11639578125,26.7913578125,14.38723678125C26.7913578125,13.92128278125,27.1664578125,13.55517578125,27.6437578125,13.55517578125C28.1210578125,13.55517578125,28.4960578125,13.92128278125,28.4960578125,14.38723678125C28.479057812500002,18.04830578125,25.444657812499997,21.01043578125,21.7114178125,21.01043578125" fill="#F29F85" fill-opacity="1"/><path d="M16.6823578125,19.31468578125Q18.7705678125,21.34967578125,21.7114178125,21.34967578125Q24.6494878125,21.34967578125,26.734257812499997,19.31448578125Q28.8218578125,17.276605781249998,28.8353578125,14.38723678125Q28.8353578125,13.89485778125,28.4858578125,13.55372853125Q28.1398578125,13.21594278125,27.6437578125,13.21594278125Q27.1476578125,13.21594278125,26.8015578125,13.55372885125Q26.452157812499998,13.89485878125,26.452157812499998,14.38723678125Q26.452157812499998,16.29119578125,25.0628578125,17.64746578125Q23.670057812499998,19.007085781249998,21.7114178125,19.007085781249998Q19.7496078125,19.007085781249998,18.3597378125,17.65343578125Q16.9706778125,16.30057578125,16.9706778125,14.38723678125Q16.9706778125,13.89485778125,16.6212378125,13.55372861125Q16.2752178125,13.21594278125,15.7791028125,13.21594278125Q15.2829898125,13.21594278125,14.9369695125,13.55372864125Q14.5875248125,13.89485778125,14.5875238125,14.38723478125Q14.5875248125,17.27324578125,16.6823578125,19.31468578125ZM26.2603578125,18.82899578125Q24.3732378125,20.671205781250002,21.7114178125,20.671205781250002Q19.0464778125,20.671205781250002,17.1558678125,18.828785781249998Q15.2659908125,16.98707578125,15.2659908125,14.38723478125Q15.2659908125,14.18068478125,15.4109058125,14.03921878125Q15.5592458125,13.89440878125,15.7791028125,13.89440878125Q15.9989578125,13.89440878125,16.1472978125,14.03921878125Q16.2922178125,14.18068478125,16.2922178125,14.38723678125Q16.2922178125,16.58686578125,17.886357812500002,18.13947578125Q19.4738078125,19.68555578125,21.7114178125,19.68555578125Q23.946307812500002,19.68555578125,25.5367578125,18.13295578125Q27.1306578125,16.57702578125,27.1306578125,14.38723678125Q27.1306578125,14.18068378125,27.2755578125,14.03921778125Q27.4238578125,13.89440878125,27.6437578125,13.89440878125Q27.863557812499998,13.89440878125,28.0119578125,14.03921878125Q28.1568578125,14.18068378125,28.1568578125,14.38723678125Q28.1447578125,16.98947578125,26.2603578125,18.82899578125Z" fill-rule="evenodd" fill="#F29F85" fill-opacity="1"/></g><g><path d="M33.56855625,36.59844375L9.85428625,36.59844375C8.15768625,36.59844375,6.78515625,35.22734375,6.78515625,33.53254375L6.78515625,33.45634375L8.48175625,9.80515375C8.50081625,8.12938375,9.87334625,6.77734375,11.55088625,6.77734375L31.87195625,6.77734375C33.54945625,6.77734375,34.92195625,8.12938375,34.94105625,9.80515375L36.63765625,33.49444375L36.63765625,33.53254375C36.63765625,35.20824375,35.265156250000004,36.59844375,33.56855625,36.59844375ZM8.71050625,33.55154375C8.72956625,34.17994375,9.244266249999999,34.67504375,9.87334625,34.67504375L33.58755625,34.67504375C34.21665625,34.67504375,34.731356250000005,34.16094375,34.75045625,33.55154375L33.03475625,9.88132375L33.03475625,9.84323375C33.03475625,9.19578375,32.520056249999996,8.68162375,31.87195625,8.68162375L11.55088625,8.68162375C10.90274625,8.68162375,10.38804625,9.19578375,10.38804625,9.84323375L10.38804625,9.91940375L8.71050625,33.55154375" fill="#121836" fill-opacity="1"/><path d="M35.97955625,35.93334375Q36.97685625,34.93284375,36.97685625,33.53254375L36.97685625,33.482243749999995L35.280156250000005,9.79087375Q35.26065625,8.40150375,34.26665625,7.42128675Q33.26955625,6.43811075,31.87195625,6.43811075L11.55088625,6.43811075Q10.15325625,6.43811075,9.15620625,7.42128675Q8.16215625,8.40149375,8.142676250000001,9.79084375L6.44592325,33.444143749999995L6.44592325,33.53254375Q6.44592325,34.94424375,7.44374825,35.94104375Q8.44142625,36.93764375,9.85428625,36.93764375L33.56855625,36.93764375Q34.97855625,36.93764375,35.97955625,35.93334375ZM36.29845625,33.50654375L36.29845625,33.53254375Q36.29845625,34.65244375,35.499056249999995,35.45434375Q34.696856249999996,36.25914375,33.56855625,36.25914375L9.85428625,36.25914375Q8.72224625,36.25914375,7.92324625,35.46104375Q7.12438925,34.66304375,7.12438925,33.53254375L7.12438925,33.46844375L8.82084625,9.81923375L8.82096625,9.80901375Q8.83366625,8.69217375,9.63257625,7.90438375Q10.43150625,7.11657675,11.55088625,7.11657675L31.87195625,7.11657675Q32.991356249999995,7.11657675,33.79025625,7.90438375Q34.58915625,8.69217375,34.60185625,9.80901375L34.60195625,9.81921375L36.29845625,33.50654375ZM10.04881625,9.907383750000001L8.37212625,33.52754375L8.71050625,33.55154375L8.37143625,33.56184375Q8.38990625,34.17074375,8.82762625,34.59304375Q9.26416625,35.014343749999995,9.87334625,35.014343749999995L33.58755625,35.014343749999995Q34.194556250000005,35.014343749999995,34.634756249999995,34.58454375Q35.07085625,34.15884375,35.08945625,33.562143750000004L35.09005625,33.54454375L33.374056249999995,9.86906375L33.374056249999995,9.84323375Q33.374056249999995,9.21702375,32.936156249999996,8.77963375Q32.498456250000004,8.34239375,31.87195625,8.34239375L11.55088625,8.34239375Q10.92436625,8.34239375,10.486666249999999,8.77963375Q10.04881625,9.21702375,10.04881625,9.84323375L10.04881625,9.907383750000001ZM9.050196249999999,33.55714375Q9.06540625,33.87974375,9.29872625,34.10484375Q9.53812625,34.335843749999995,9.87334625,34.335843749999995L33.58755625,34.335843749999995Q33.91825625,34.335843749999995,34.16075625,34.09904375Q34.39525625,33.87024375,34.41075625,33.55714375L32.695556249999996,9.89360375L32.695556249999996,9.84323375Q32.695556249999996,9.49826375,32.45665625,9.259633749999999Q32.217656250000005,9.02085375,31.87195625,9.02085375L11.55088625,9.02085375Q11.20518625,9.02085375,10.966156250000001,9.259633749999999Q10.72727625,9.49826375,10.72727625,9.84323375L10.72727625,9.93143375L9.050196249999999,33.55714375Z" fill-rule="evenodd" fill="#121836" fill-opacity="1"/></g></g></svg>