<svg xmlns="http://www.w3.org/2000/svg" xmlns:xlink="http://www.w3.org/1999/xlink" fill="none" version="1.1" width="43.42182922363281" height="43.37608337402344" viewBox="0 0 43.42182922363281 43.37608337402344"><defs><clipPath id="master_svg0_492_01771"><rect x="0" y="0" width="43.42182922363281" height="43.37608337402344" rx="0"/></clipPath></defs><g clip-path="url(#master_svg0_492_01771)"><g><path d="M22.8537375,5.90869140625C14.0101875,5.90869140625,6.8359375,12.57897140625,6.8359375,20.83009140625C6.8359375,25.29299140625,8.9587875,29.30289140625,12.2491875,32.054791406250004C11.6171675,33.76579140625,11.5737375,35.52489140625,11.8439175,36.65269140625C11.9790075,37.24069140625,12.519367500000001,37.59729140625,13.0645575,37.59729140625C13.199647500000001,37.59729140625,13.3347375,37.55399140625,13.469827500000001,37.50579140625C14.5505475,37.144291406250005,16.3115475,36.56109140625,17.348837500000002,36.33459140625Q18.926537500000002,35.97309140625,22.8103375,35.746591406250005C31.6539375,35.746591406250005,38.8281375,29.07629140625,38.8281375,20.83009140625C38.8281375,12.58379140625,31.6973375,5.90869140625,22.8537375,5.90869140625ZM22.8537375,33.086191406249995L22.6752375,33.086191406249995C22.269937499999997,33.12959140625,18.5260375,33.35609140625,16.8084875,33.71759140625C16.1330375,33.852491406249996,15.3176675,34.07909140625,14.4637075,34.392291406249996C14.5071275,33.93929140625,14.642217500000001,33.49109140625,14.8255575,32.99469140625L15.4575875,31.19209140625L13.9667675,29.97759140625C11.1684675,27.63529140625,9.5425675,24.34349140625,9.5425675,20.87349140625C9.5425675,14.11159140625,15.4961775,8.66066140625,22.8537375,8.66066140625C30.2065375,8.66066140625,36.1649375,14.11641140625,36.1649375,20.87349140625C36.1649375,27.63049140625,30.2065375,33.086191406249995,22.8537375,33.086191406249995Z" fill="#121836" fill-opacity="1"/></g><g><path d="M27.5002265625,23.456822343749998C26.959826562499998,23.00379234375,26.1010265625,23.051982343749998,25.6041065625,23.59177234375C24.9720765625,24.31471234375,24.0698665625,24.71955234375,23.0759865625,24.71955234375C22.0821165625,24.71955234375,21.1799065625,24.31471234375,20.5478765625,23.59177234375C20.0509365625,23.051982343749998,19.1921465625,22.96041234375,18.6517865625,23.456822343749998C18.1114265625,23.95324234375,18.0197565625,24.81112234375,18.5166965625,25.35091234375C19.6456665625,26.65700234375,21.3149965625,27.38000234375,23.0759865625,27.38000234375C24.7887365625,27.38000234375,26.458026562500002,26.65700234375,27.635326562499998,25.35091234375C28.1322265625,24.81112234375,28.0888265625,23.95324234375,27.5002265625,23.456822343749998ZM18.9895165625,19.19633234375L18.9895165625,17.40827234375C18.9895165625,16.60822334375,18.3430165625,15.96240234375,17.5421165625,15.96240234375C16.7412295625,15.96240234375,16.0947265625,16.60822334375,16.0947265625,17.40827234375L16.0947265625,19.19633234375C16.0947265625,19.99638234375,16.7412295625,20.64220234375,17.5421165625,20.64220234375C18.3430165625,20.64220234375,18.9895165625,19.99156234375,18.9895165625,19.19633234375ZM28.2480265625,15.96240234375C27.4471265625,15.96240234375,26.8006265625,16.60822334375,26.8006265625,17.40827234375L26.8006265625,19.19633234375C26.8006265625,19.99638234375,27.4471265625,20.64220234375,28.2480265625,20.64220234375C29.0489265625,20.64220234375,29.6954265625,19.99638234375,29.6954265625,19.19633234375L29.6954265625,17.40827234375C29.6954265625,16.60822334375,29.0489265625,15.96240234375,28.2480265625,15.96240234375" fill="#F29F85" fill-opacity="1"/></g></g></svg>