<svg xmlns="http://www.w3.org/2000/svg" xmlns:xlink="http://www.w3.org/1999/xlink" fill="none" version="1.1" width="43.42182922363281" height="43.37608337402344" viewBox="0 0 43.42182922363281 43.37608337402344"><defs><clipPath id="master_svg0_832_05476"><rect x="0" y="0" width="43.42182922363281" height="43.37608337402344" rx="0"/></clipPath><clipPath id="master_svg1_832_05478"><rect x="14.92626953125" y="14.92626953125" width="13.56932258605957" height="13.56932258605957" rx="0"/></clipPath></defs><g clip-path="url(#master_svg0_832_05476)"><g><path d="M21.7104125,39.30950625C11.993242500000001,39.30950625,4.0703125,31.39490625,4.0703125,21.68790625C4.0703125,11.98099625,11.993242500000001,4.06640625,21.7104125,4.06640625C31.4276125,4.06640625,39.3505125,11.98099625,39.3505125,21.68790625C39.3505125,31.39490625,31.4276125,39.30950625,21.7104125,39.30950625ZM21.7104125,6.48307625C13.3238125,6.48307625,6.4895325,13.31015625,6.4895325,21.68790625C6.4895325,30.06570625,13.3238125,36.89280625,21.7104125,36.89280625C30.0970125,36.89280625,36.9313125,30.06570625,36.9313125,21.68790625C36.9313125,13.31015625,30.0970125,6.48307625,21.7104125,6.48307625Z" fill="#121836" fill-opacity="1"/></g><g clip-path="url(#master_svg1_832_05478)"><g><path d="M22.235636875,18.584144062500002L22.235636875,16.8005180625Q22.395976875,16.0544700625,23.006866875,16.5089890625L27.249896874999997,20.1729740625Q28.182796875,20.8209640625,27.313496875,21.3086040625L23.135396874999998,24.9407840625Q22.299246875,25.5569740625,22.235636875,24.616134062500002L22.235636875,22.9623740625Q17.992576875,21.6332640625,16.256655875,26.9523140625Q16.096314875,27.2438140625,15.999580875,26.9523140625Q14.359066875,18.9737340625,22.235636875,18.584144062500002Z" fill="#F29F85" fill-opacity="1"/></g></g></g></svg>