<svg xmlns="http://www.w3.org/2000/svg" xmlns:xlink="http://www.w3.org/1999/xlink" fill="none" version="1.1" width="21.52590560913086" height="24.816020965576172" viewBox="0 0 21.52590560913086 24.816020965576172"><g transform="matrix(-1,0,0,1,43.05181121826172,0)"><path d="M31.18670560913086,3.48061L27.51288560913086,3.48061Q27.131895609130858,3.48061,26.92779560913086,3.30372Q26.72368560913086,3.12683,26.64205560913086,2.8547Q26.56041560913086,2.58256,26.56040560913086,2.2424Q26.56040560913086,1.90223,26.61483560913086,1.60288Q26.64205560913086,1.30353,26.72368560913086,0.949752Q26.805335609130857,0.595976,26.955005609130858,0.351055Q27.10468560913086,0.106133,27.349605609130858,0.0244922Q27.59452560913086,-0.0571484,27.94830560913086,0.16056Q28.35650560913086,0.405482,28.87355560913086,0.691224Q29.390615609130858,0.976966,29.88045560913086,1.26271Q30.37030560913086,1.54845,30.79211560913086,1.77977Q31.21392560913086,2.01108,31.431635609130858,2.14715Q31.70380560913086,2.33764,31.83980560913086,2.56896Q31.97590560913086,2.80027,31.94870560913086,3.00437Q31.92150560913086,3.20848,31.73100560913086,3.34454Q31.54050560913086,3.48061,31.18670560913086,3.48061ZM33.30940560913086,3.4534L36.956005609130855,3.4534Q37.337005609130856,3.4534,37.54110560913086,3.27651Q37.74520560913086,3.09962,37.82680560913086,2.82749Q37.908505609130856,2.55535,37.908505609130856,2.21518Q37.908505609130856,1.87501,37.88120560913086,1.57566Q37.82680560913086,1.27631,37.75880560913086,0.936146Q37.69070560913086,0.595976,37.54110560913086,0.351055Q37.39140560913086,0.106133,37.146505609130855,0.0244922Q36.90150560913086,-0.0571484,36.54780560913086,0.133346Q36.13960560913086,0.378268,35.62250560913086,0.66401Q35.10550560913086,0.949752,34.602005609130856,1.23549Q34.09860560913086,1.52124,33.67670560913086,1.75255Q33.25490560913086,1.98387,33.06440560913086,2.11993Q32.765105609130856,2.31043,32.62900560913086,2.54174Q32.49300560913086,2.77306,32.52020560913086,2.97716Q32.54740560913086,3.18126,32.73790560913086,3.31733Q32.92840560913086,3.4534,33.30940560913086,3.4534ZM30.80572560913086,5.24949L22.913795609130858,5.24949Q22.04296260913086,5.24949,21.78443460913086,5.53523Q21.52590560913086,5.82097,21.52590560913086,6.44689L21.52590560913086,8.84168Q21.52590560913086,9.52202,21.81164760913086,9.84858Q22.09738960913086,10.1751,22.94100560913086,10.1751L30.80572560913086,10.1751L30.80572560913086,5.24949M33.77200560913086,5.24949L41.55510560913086,5.24949Q42.42590560913086,5.24949,42.738805609130864,5.58966Q43.05180560913086,5.92983,43.05180560913086,6.55574L43.05180560913086,8.8961Q43.05180560913086,9.54923,42.76610560913086,9.86218Q42.48030560913086,10.1751,41.63670560913086,10.1751L33.77200560913086,10.1751L33.77200560913086,5.24949ZM30.80572560913086,11.6175L22.45116560913086,11.6175L22.45116560913086,16.0805L22.45116560913086,17.8494L22.45116560913086,19.5094L22.45116560913086,20.9245L22.45116560913086,21.9042Q22.45116560913086,23.2921,23.24035560913086,24.054Q24.02955560913086,24.816,25.68957560913086,24.816L30.80572560913086,24.816L30.80572560913086,11.6175ZM33.77200560913086,11.6175L42.09930560913086,11.6175L42.09930560913086,21.8225Q42.07210560913086,23.2104,41.31010560913086,24.0132Q40.54820560913086,24.816,38.88810560913086,24.816L33.77200560913086,24.816L33.77200560913086,11.6175Z" fill="#FFFFFF" fill-opacity="0.699999988079071"/></g></svg>