<svg xmlns="http://www.w3.org/2000/svg" xmlns:xlink="http://www.w3.org/1999/xlink" fill="none" version="1.1" width="48" height="48" viewBox="0 0 48 48"><defs><clipPath id="master_svg0_492_02376"><path d="M48 69.33333396911621C48 57.5512589549261 57.5512589549261 48 69.33333396911621 48L96 48C96 48 96 48 96 48L96 74.66666603088379C96 86.4487410450739 86.4487410450739 96 74.66666603088379 96L58.666666984558105 96C52.77562947746305 96 48 91.22437052253696 48 85.3333330154419Z"/></clipPath></defs><g transform="matrix(-1,0,0,-1,96,96)" clip-path="url(#master_svg0_492_02376)"><g transform="matrix(1,0,0,-1,0,171.130859375)"><path d="M59.47949361801,91.9974296875C59.47949361801,94.29516968749999,61.8648821875,96.4186296875,65.7372321875,97.5675296875C69.6095921875,98.7153296875,74.38039218750001,98.7153296875,78.2526921875,97.5675296875C82.1250921875,96.4186296875,84.5104921875,94.29516968749999,84.5104921875,91.9974296875C84.5104921875,88.4454296875,78.9069921875,85.5654296875,71.9949921875,85.5654296875C65.0829721875,85.5654296875,59.47949361801,88.4454296875,59.47949361801,91.9974296875ZM71.9949921875,100.3640296875C66.8829721875,100.3640296875,62.4868021875,98.7884296875,60.5438421875,96.5313296875C59.8593191875,97.3264296875,59.47949361801,98.2061296875,59.47949361801,99.1306296875C59.47949361801,102.6826296875,65.0829721875,105.56262968749999,71.9949921875,105.56262968749999C78.9069921875,105.56262968749999,84.5104921875,102.6826296875,84.5104921875,99.1306296875C84.5104921875,98.2061296875,84.1305921875,97.3254296875,83.4460921875,96.5324296875C81.5031921875,98.7894296875,77.1069921875,100.3640296875,71.9949921875,100.3640296875M71.9949921875,107.6746296875C66.81619218750001,107.6746296875,62.3720121875,106.05832968749999,60.4687091875,103.7532296875C59.8321871875,104.52542968750001,59.4794921875,105.3737296875,59.4794921875,106.26382968749999C59.47949361801,109.8158296875,65.0829721875,112.69582968750001,71.9949921875,112.69582968750001C78.9069921875,112.69582968750001,84.5104921875,109.8158296875,84.5104921875,106.26382968749999C84.5104921875,105.3737296875,84.1587921875,104.5244296875,83.52119218749999,103.7532296875C81.6178921875,106.05832968749999,77.1737921875,107.6746296875,71.9949921875,107.6746296875" fill="#FFFFFF" fill-opacity="0.699999988079071"/></g></g></svg>