<svg xmlns="http://www.w3.org/2000/svg" xmlns:xlink="http://www.w3.org/1999/xlink" fill="none" version="1.1" width="200" height="200" viewBox="0 0 200 200"><defs><clipPath id="master_svg0_10_241"><rect x="0" y="0" width="200" height="200" rx="0"/></clipPath></defs><g clip-path="url(#master_svg0_10_241)"><g><path d="M30,131.971C30,137.075,32.72282,141.79000000000002,37.14286,144.34199999999998L92.9619,176.571C97.3819,179.123,102.8276,179.123,107.2476,176.571L163.067,144.34199999999998C167.487,141.791,170.209,137.075,170.21,131.971L170.21,114.0234L170.21,67.5139C170.21,62.4105,167.487,57.6945,163.067,55.1425L107.2476,22.91392C102.8276,20.362026,97.3819,20.362026,92.9619,22.91392L37.14286,55.1425C32.72295,57.6943,30.000127792,62.4103,30,67.5139L30,131.971Z" fill="#FFAA44" fill-opacity="1"/></g><g><path d="M99.919,65.00000762939C106.6315,64.99718475,112.4405,69.66793,113.8789,76.2244C115.3173,82.7809,111.9971,89.4545,105.9,92.2619L118.1571,99.3381C119.6305,100.1888,120.5381,101.7608,120.5381,103.4619L120.5381,121.7762C120.5381,123.4774,119.63040000000001,125.04939999999999,118.1571,125.9L102.3,135.0524C100.8267,135.90300000000002,99.01140000000001,135.90300000000002,97.5381,135.0524L81.681,125.9C80.2076,125.0493,79.3,123.4773,79.3,121.7762L79.3,103.4619C79.3,101.7607,80.2076,100.1887,81.681,99.3381L93.94290000000001,92.2667C87.8406,89.4628,84.5152,82.7871,85.953,76.2272C87.3907,69.66736,93.20349999999999,64.99455261,99.919,65.00000762939ZM121.3524,69.76191C126.7908,69.76259,131.53730000000002,73.44864,132.8846,78.7175C134.23180000000002,83.9864,131.8372,89.4984,127.0667,92.1095L135.4667,96.9571C136.94,97.8078,137.8476,99.3798,137.8476,101.081L137.8476,114.63329999999999C137.8476,116.3346,136.94,117.9065,135.4667,118.75710000000001L127.0571,123.6143C127.1558,123.00659999999999,127.2052,122.39189999999999,127.2048,121.7762L127.2048,103.4619L127.1762,102.6524C126.9066,98.8678,124.7764,95.4637,121.4905,93.5667L117.2191,91.0952L117.2619,91.0476C119.6172,87.5776,120.8748,83.4796,120.8714,79.2857C120.8714,75.9714,120.10470000000001,72.8381,118.7333,70.05238C119.5762,69.86191,120.4476,69.76191,121.3524,69.76191ZM78.4952,69.76191C79.3952,69.76191,80.2667,69.85715,81.1095,70.04762C79.6955,72.92165,78.9623,76.0827,78.9667,79.2857L78.9952,80.3571C79.1669,83.7593,80.1673,87.068,81.90950000000001,89.9952L82.6143,91.1L78.3476,93.5667C74.8115,95.6091,72.6333,99.381,72.6333,103.4619L72.6333,121.7762C72.6333,122.3952,72.681,123.01429999999999,72.781,123.6143L64.38095,118.75710000000001C62.907608,117.9065,62,116.33449999999999,62,114.63329999999999L62,101.081C62.0000419617,99.3797,62.90765,97.8078,64.38095,96.9571L72.7762,92.1095C68.00488,89.498,65.61037,83.9847,66.9589,78.7152C68.30742,73.44576,73.056,69.76044,78.4952,69.76191Z" fill="#FFFFFF" fill-opacity="1"/></g></g></svg>