<svg t="1716046441523" class="icon" viewBox="0 0 1024 1024" version="1.1" xmlns="http://www.w3.org/2000/svg" p-id="6686" width="200" height="200"><path d="M0 0m307.2 0l409.6 0q307.2 0 307.2 307.2l0 409.6q0 307.2-307.2 307.2l-409.6 0q-307.2 0-307.2-307.2l0-409.6q0-307.2 307.2-307.2Z" fill="#DEE7EF" p-id="6687"></path><path d="M622.08 570.9312l133.12 158.72a55.1424 55.1424 0 0 1 7.9104 57.9328 52.992 52.992 0 0 1-48.2048 31.5648h-176.4352v-162.5856h-53.0432V819.2h-176.384a52.992 52.992 0 0 1-48.2048-31.5648 55.1424 55.1424 0 0 1 7.9104-57.9328l133.12-158.72a208.5376 208.5376 0 0 0 220.16 0z m-110.08-366.08a180.736 180.736 0 1 1-176.8448 180.7104A178.7904 178.7904 0 0 1 512 204.8z" fill="#BAC5D2" opacity=".5" p-id="6688"></path></svg>