<svg xmlns="http://www.w3.org/2000/svg" xmlns:xlink="http://www.w3.org/1999/xlink" fill="none" version="1.1" width="41.36376953125" height="40.9090576171875" viewBox="0 0 41.36376953125 40.9090576171875"><g><g><g><path d="M39.30126953125,28.4168474609375Q40.90926953125,24.6151474609375,40.90926953125,20.4545474609375L38.18196953125,20.4545474609375Q38.18196953125,24.0620474609375,36.78936953125,27.3543474609375Q35.44396953125,30.5354474609375,32.989769531250005,32.989647460937505Q30.53556953125,35.4438474609375,27.35446953125,36.7892474609375Q24.06216953125,38.1818474609375,20.45466953125,38.1818474609375Q16.84716953125,38.1818474609375,13.55486953125,36.7892474609375Q10.37378953125,35.4438474609375,7.91959953125,32.989647460937505Q5.46540953125,30.5354474609375,4.11993953125,27.3543474609375Q2.72740953125,24.0620474609375,2.72740953125,20.4545474609375Q2.72740953125,16.8470474609375,4.11993953125,13.5547474609375Q5.46540953125,10.3736774609375,7.91959953125,7.9194774609375Q10.37379953125,5.4652874609375,13.55486953125,4.1198174609375Q16.84716953125,2.7272874609375,20.45466953125,2.7272874609375Q24.41986953125,2.7272874609375,27.97916953125,4.398447460937501Q31.42066953125,6.0142974609375,33.90816953125,8.9101774609375L35.97696953125,7.1331274609375Q33.108769531250005,3.7939474609375,29.13826953125,1.9297414609375Q25.02816953125,0.000007460937500036735,20.45466953125,0.000007460937500036735Q16.294069531250003,0.000007460937500036735,12.49246953125,1.6079894609375Q8.82145953125,3.1606774609375,5.99112953125,5.9910074609375Q3.16079953125,8.8213374609375,1.60811253125,12.4923474609375Q0.00012953125000003674,16.2940474609375,0.00012953125000003674,20.4545474609375Q0.00012953125000003674,24.6151474609375,1.60811153125,28.4168474609375Q3.16079953125,32.0877474609375,5.99112953125,34.9181474609375Q8.82144953125,37.7484474609375,12.49246953125,39.3011474609375Q16.294069531250003,40.9091474609375,20.45466953125,40.9091474609375Q24.61526953125,40.9091474609375,28.41696953125,39.3011474609375Q32.08786953125,37.7484474609375,34.91826953125,34.9181474609375Q37.74856953125,32.0877474609375,39.30126953125,28.4168474609375Z" fill-rule="evenodd" fill="#FAE473" fill-opacity="1"/></g><g><ellipse cx="20.454678535461426" cy="20.454556465148926" rx="10" ry="10" fill-opacity="0" stroke-opacity="1" stroke="#F4B94A" fill="none" stroke-width="2.7272727489471436"/></g><g><ellipse cx="20.454678297042847" cy="20.454556226730347" rx="2.7272727489471436" ry="2.7272727489471436" fill="#EFA23E" fill-opacity="1"/></g><g><ellipse cx="38.63649821281433" cy="13.18182921409607" rx="2.7272727489471436" ry="2.7272727489471436" fill="#FBE877" fill-opacity="1"/></g></g></g></svg>