<svg xmlns="http://www.w3.org/2000/svg" xmlns:xlink="http://www.w3.org/1999/xlink" fill="none" version="1.1" width="44" height="44" viewBox="0 0 44 44"><defs><clipPath id="master_svg0_832_2798"><rect x="0" y="0" width="44" height="44" rx="0"/></clipPath></defs><g clip-path="url(#master_svg0_832_2798)"><g><path d="M27.5002921875,7.33317390625L16.5002921875,7.33317390625C15.4877921875,7.33317390625,14.6669921875,6.51236390625,14.6669921875,5.49983390625C14.6669921875,4.48731490625,15.4877921875,3.66650390625,16.5002921875,3.66650390625L27.5002921875,3.66650390625C28.5128921875,3.66650390625,29.3336921875,4.48731490625,29.3336921875,5.49983390625C29.3336921875,6.51236390625,28.5128921875,7.33317390625,27.5002921875,7.33317390625ZM38.5002921875,14.66650390625L5.5003221875,14.66650390625C4.4878031875,14.66650390625,3.6669921875,13.84570390625,3.6669921875,12.83317390625C3.6669921875,11.82064390625,4.4878031875,10.99983390625,5.5003221875,10.99983390625L38.5002921875,10.99983390625C39.5128921875,10.99983390625,40.3336921875,11.82064390625,40.3336921875,12.83317390625C40.3336921875,13.84570390625,39.5128921875,14.66650390625,38.5002921875,14.66650390625Z" fill="#141414" fill-opacity="1"/></g><g><path d="M14.6669921875,29.333177720947265C14.6669921875,30.345707720947267,15.4878041875,31.166507720947266,16.5003221875,31.166507720947266C17.512852187500002,31.166507720947266,18.3336621875,30.345707720947267,18.3336621875,29.333177720947265L18.3336621875,21.999837720947266C18.3336621875,20.987319720947266,17.512852187500002,20.166507720947266,16.5003221875,20.166507720947266C15.4878041875,20.166507720947266,14.6669921875,20.987319720947266,14.6669921875,21.999837720947266L14.6669921875,29.333177720947265ZM25.6669921875,29.333177720947265C25.6669921875,30.345707720947267,26.4877921875,31.166507720947266,27.5002921875,31.166507720947266C28.5128921875,31.166507720947266,29.3336921875,30.345707720947267,29.3336921875,29.333177720947265L29.3336921875,21.999837720947266C29.3336921875,20.987319720947266,28.5128921875,20.166507720947266,27.5002921875,20.166507720947266C26.4877921875,20.166507720947266,25.6669921875,20.987319720947266,25.6669921875,21.999837720947266L25.6669921875,29.333177720947265Z" fill="#5A5A5A" fill-opacity="1"/></g><g><path d="M31.1663078125,40.33349609375L12.8330078125,40.33349609375C9.7954378125,40.33349609375,7.3330078125,37.87109609375,7.3330078125,34.83349609375L7.3330078125,14.66682609375C7.3330078125,13.654307093749999,8.153818812499999,12.83349609375,9.1663378125,12.83349609375C10.1788678125,12.83349609375,10.9996778125,13.654307093749999,10.9996778125,14.66682609375L10.9996778125,34.83349609375C10.9996778125,35.84599609375,11.8204878125,36.66679609375,12.8330078125,36.66679609375L31.1663078125,36.66679609375C32.1789078125,36.66679609375,32.9997078125,35.84599609375,32.9997078125,34.83349609375L32.9997078125,14.66682609375C32.9997078125,13.654307093749999,33.8205078125,12.83349609375,34.8330078125,12.83349609375C35.8455078125,12.83349609375,36.6663078125,13.654307093749999,36.6663078125,14.66682609375L36.6663078125,34.83349609375C36.6663078125,37.87109609375,34.2039078125,40.33349609375,31.1663078125,40.33349609375Z" fill="#141414" fill-opacity="1"/></g></g></svg>