<svg xmlns="http://www.w3.org/2000/svg" xmlns:xlink="http://www.w3.org/1999/xlink" fill="none" version="1.1" width="200" height="200" viewBox="0 0 200 200"><defs><clipPath id="master_svg0_10_245"><rect x="0" y="0" width="200" height="200" rx="0"/></clipPath></defs><g clip-path="url(#master_svg0_10_245)"><g><path d="M153.82495703125,103.84544708251954Q153.82495703125,105.19614708251953,153.75795703125,106.54514708251953Q153.69095703124998,107.89414708251954,153.55695703125,109.23834708251954Q153.42295703125,110.58254708251954,153.22195703124999,111.91854708251952Q153.02095703125002,113.25464708251953,152.75395703125,114.57934708251953Q152.48695703125,115.90404708251953,152.15495703125,117.21424708251953Q151.82195703125,118.52444708251953,151.42495703125002,119.81694708251953Q151.02795703125,121.10944708251954,150.56695703125,122.38114708251953Q150.10595703125,123.65284708251953,149.58295703125,124.90064708251953Q149.05895703125,126.14854708251953,148.47395703125,127.36954708251953Q147.88895703125002,128.59054708251955,147.24395703125,129.78164708251953Q146.59895703125,130.97284708251954,145.89595703125002,132.13134708251954Q145.19195703125,133.28984708251954,144.43195703125,134.41294708251954Q143.67195703125,135.53594708251953,142.85695703125,136.62084708251953Q142.04185703125,137.70564708251953,141.17385703125,138.74974708251955Q140.30585703125,139.79384708251953,139.38705703124998,140.79464708251953Q138.46825703125,141.79534708251953,137.50075703125,142.75044708251954Q136.53325703125,143.70554708251953,135.51955703125,144.61254708251954Q134.50575703125,145.51964708251953,133.44815703125,146.37644708251952Q132.39045703124998,147.23334708251951,131.29155703125,148.03794708251954Q130.19255703125,148.84244708251953,129.05495703125,149.59244708251953Q127.91735703125,150.34344708251953,126.74375703125,151.03744708251952Q125.57025703125,151.7324470825195,124.36355703125,152.36844708251954Q123.15695703125,153.00544708251954,121.92005703125,153.58244708251954Q120.68325703125,154.1604470825195,119.41915703125,154.67744708251954Q118.15515703125,155.19444708251953,116.86685703125,155.64944708251954Q115.57865703125,156.10444708251953,114.26935703125,156.49644708251952Q112.96005703125,156.88844708251952,111.63285703125,157.21644708251955Q110.30565703125,157.54444708251953,108.96375703125,157.80844708251954Q107.62185703125,158.0714470825195,106.26845703125,158.26944708251955Q104.91505703125,158.46844708251953,103.55345703124999,158.60044708251954Q102.19185703125001,158.7324470825195,100.82525703125,158.79944708251952Q99.45865703125,158.86544708251955,98.09045703125,158.86544708251955Q96.72225703125,158.86544708251955,95.35575703125,158.79944708251952Q93.98915703125,158.7324470825195,92.62755703125,158.60044708251954Q91.26595703125,158.46844708251953,89.91255703125,158.26944708251955Q88.55915703125001,158.0714470825195,87.21725703125,157.80844708251954Q85.87535703124999,157.54444708251953,84.54815703125,157.21644708251955Q83.22085703125,156.88844708251952,81.91165703125,156.49644708251952Q80.60235703125,156.10444708251953,79.31405703125,155.64944708251954Q78.02585703125,155.19444708251953,76.76175703125,154.67744708251954Q75.49775703125,154.1604470825195,74.26085703125,153.58244708251954Q73.02405703125,153.00544708251954,71.81745703125,152.36844708251954Q70.61075703125,151.7324470825195,69.43725703125,151.03744708251952Q68.26365703125,150.34344708251953,67.12605703125,149.59244708251953Q65.98845703125,148.84244708251953,64.88945703125,148.03794708251954Q63.79055703125,147.23334708251951,62.73285703125,146.37644708251952Q61.67525703125,145.51964708251953,60.661457031249995,144.61254708251954Q59.64765703125,143.70554708251953,58.68025703125,142.75044708251954Q57.71275703125,141.79534708251953,56.79395703125,140.79464708251953Q55.87505703125,139.79384708251953,55.00715703125,138.74974708251955Q54.13915703125,137.70564708251953,53.32405703125,136.62084708251953Q52.50905703125,135.53594708251953,51.74891703125,134.41294708251954Q50.98878703125,133.28984708251954,50.285387031249996,132.13134708251954Q49.58198703125,130.97284708251954,48.93701703125,129.78164708251953Q48.292057031249996,128.59044708251952,47.70706703125,127.36954708251953Q47.122087031250004,126.14854708251953,46.59849703125,124.90064708251953Q46.07490703125,123.65284708251953,45.61396703125,122.38114708251953Q45.15303703125,121.10944708251954,44.75586703125,119.81694708251953Q44.35869703125,118.52434708251953,44.02624703125,117.21424708251953Q43.69380703125,115.90404708251953,43.42687703125,114.57934708251953Q43.15995703125,113.25464708251953,42.95919903125,111.91854708251952Q42.75844203125,110.58254708251954,42.62433403125,109.23834708251954Q42.49022603125,107.89414708251954,42.42309173125,106.54514708251953Q42.35595703125,105.19614708251953,42.35595703125,103.84544708251954Q42.35595703125,102.49474708251952,42.42309173125,101.14574708251953Q42.49022603125,99.79674708251953,42.62433403125,98.45254708251953Q42.75844203125,97.10834708251953,42.95919903125,95.77234708251953Q43.15995703125,94.43624708251953,43.42687703125,93.11154708251954Q43.69380703125,91.78684708251953,44.02624703125,90.47664708251953Q44.35869703125,89.16644708251954,44.75586703125,87.87394708251952Q45.15303703125,86.58144708251953,45.61396703125,85.30974708251952Q46.07490703125,84.03804708251954,46.59849703125,82.79024708251953Q47.122087031250004,81.54234708251954,47.70706703125,80.32134708251954Q48.292057031249996,79.10034708251953,48.93701703125,77.90914708251952Q49.58198703125,76.71804708251953,50.285387031249996,75.55954708251953Q50.98878703125,74.40104708251954,51.74891703125,73.27794708251953Q52.50905703125,72.15494708251953,53.32405703125,71.07004708251952Q54.13915703125,69.98524708251954,55.00715703125,68.94114708251954Q55.87505703125,67.89704708251953,56.79395703125,66.89624708251952Q57.71275703125,65.89544708251952,58.68025703125,64.94044708251953Q59.64765703125,63.98534708251953,60.661457031249995,63.07834708251953Q61.67525703125,62.17124708251953,62.73285703125,61.314447082519536Q63.79055703125,60.45754708251953,64.88945703125,59.65294708251953Q65.98845703125,58.84834708251953,67.12605703125,58.09798708251953Q68.26365703125,57.34759708251953,69.43725703125,56.65321708251953Q70.61075703125,55.95883708251953,71.81745703125,55.32213708251953Q73.02405703125,54.68543708251953,74.26085703125,54.10795708251953Q75.49775703125,53.53046708251953,76.76175703125,53.01359708251953Q78.02585703125,52.49671708251953,79.31405703125,52.04169708251953Q80.60235703125,51.58666708251953,81.91165703125,51.19458708251953Q83.22085703125,50.80251708251953,84.54815703125,50.47432708251953Q85.87535703124999,50.14614708251953,87.21725703125,49.88263708251953Q88.55915703125001,49.61913908251953,89.91255703125,49.420955082519534Q91.26595703125,49.22277208251953,92.62755703125,49.09038308251953Q93.98915703125,48.95799508251953,95.35575703125,48.89172108251953Q96.72225703125,48.82544708251953,98.09045703125,48.82544708251953Q99.45865703125,48.82544708251953,100.82525703125,48.89172108251953Q102.19185703125001,48.95799508251953,103.55345703124999,49.09038308251953Q104.91505703125,49.22277208251953,106.26845703125,49.420955082519534Q107.62185703125,49.61913908251953,108.96375703125,49.88263708251953Q110.30565703125,50.14614708251953,111.63285703125,50.47432708251953Q112.96005703125,50.80251708251953,114.26935703125,51.19458708251953Q115.57865703125,51.58666708251953,116.86685703125,52.04168708251953Q118.15515703125,52.49671708251953,119.41915703125,53.01359708251953Q120.68325703125,53.53046708251953,121.92005703125,54.10795708251953Q123.15695703125,54.68543708251953,124.36355703125,55.32213708251953Q125.57025703125,55.95883708251953,126.74375703125,56.65321708251953Q127.91735703125,57.34759708251953,129.05495703125,58.09798708251953Q130.19255703125,58.84834708251953,131.29155703125,59.65294708251953Q132.39045703124998,60.45754708251953,133.44815703125,61.314447082519536Q134.50575703125,62.17124708251953,135.51955703125,63.07834708251953Q136.53325703125,63.98534708251953,137.50075703125,64.94044708251953Q138.46825703125,65.89544708251952,139.38705703124998,66.89624708251952Q140.30585703125,67.89704708251953,141.17385703125,68.94114708251954Q142.04185703125,69.98524708251954,142.85695703125,71.07004708251952Q143.67195703125,72.15494708251953,144.43195703125,73.27794708251953Q145.19195703125,74.40104708251954,145.89595703125002,75.55954708251953Q146.59895703125,76.71804708251953,147.24395703125,77.90914708251952Q147.88895703125002,79.10034708251953,148.47395703125,80.32134708251954Q149.05895703125,81.54234708251954,149.58295703125,82.79024708251953Q150.10595703125,84.03804708251954,150.56695703125,85.30974708251952Q151.02795703125,86.58144708251953,151.42495703125002,87.87394708251952Q151.82195703125,89.16644708251954,152.15495703125,90.47664708251953Q152.48695703125,91.78684708251953,152.75395703125,93.11154708251954Q153.02095703125002,94.43624708251953,153.22195703124999,95.77234708251953Q153.42295703125,97.10834708251953,153.55695703125,98.45254708251953Q153.69095703124998,99.79674708251953,153.75795703125,101.14574708251953Q153.82495703125,102.49474708251952,153.82495703125,103.84544708251954Z" fill="#EFA525" fill-opacity="1"/></g><g><path d="M147.945,25L52.054500000000004,25C37.1306,25.0431381,25.0431436,37.1306,25,52.054500000000004L25,147.945C25.0431327,162.869,37.1306,174.957,52.054500000000004,175L147.945,175C162.869,174.957,174.957,162.869,175,147.945L175,52.054500000000004C174.957,37.1306,162.869,25.0431109,147.945,25ZM106.3873,54.9095C122.8229,54.9103,136.14600000000002,68.23349999999999,136.14600000000002,84.66839999999999C136.14499999999998,101.104,122.8221,114.4273,106.3873,114.4273C89.9516,114.4265,76.6283,101.1051,76.6284,84.67269999999999C76.6121,68.22999999999999,89.9456,54.8964,106.3884,54.9127L106.3873,54.9095ZM144.564,117.5844C144.789,116.4575,107.0636,144.864,106.7636,144.187L100.7516,144.187C85.3458,137.048,69.1884,132.99,66.2582,133.667C62.8011,133.96800000000002,60.3967,139.679,57.3902,139.15300000000002C56.4084,138.627,52.5804,119.6887,54.835300000000004,113.6767C73.62180000000001,98.0462,85.1953,119.6134,100.6764,122.3942C103.9403,122.8372,107.2274,123.0882,110.5207,123.1458C115.3305,120.3651,137.124,109.168,138.775,109.2433C146.96699999999998,109.6185,144.339,118.7123,144.55700000000002,117.5854L144.564,117.5844Z" fill="#FFFFFF" fill-opacity="1"/></g><g><path d="M122.01856796875,68.73780822753906L111.12586796875,84.06830822753906L119.69276796875,84.06830822753906L119.69276796875,87.45020822753906L109.54726796874999,87.45020822753906L109.54726796874999,92.18470822753906L119.69276796875,92.18470822753906L119.69276796875,95.56650822753906L109.54726796874999,95.56650822753906L109.54726796874999,102.33020822753906L103.98366796875,102.33020822753906L103.98366796875,95.56650822753906L93.61347796875,95.56650822753906L93.61347796875,92.18470822753906L104.05896796875,92.18470822753906L104.05896796875,87.45020822753906L93.61347796875,87.45020822753906L93.61347796875,84.06830822753906L102.40616796875,84.06830822753906L91.65966796875,68.73780822753906L97.97275796875,68.73780822753906L105.48806796875,80.68650822753906C106.01546796875,81.50840822753906,106.49236796875,82.36160822753907,106.91606796875,83.24140822753907L107.06656796875001,83.24140822753907C107.49796796875,82.32670822753906,108.00066796875001,81.44720822753906,108.56986796875,80.61130822753907L116.08516796875,68.73780822753906L122.02186796875,68.73780822753906L122.01856796875,68.73780822753906Z" fill="#FFFFFF" fill-opacity="1"/></g></g></svg>