<svg xmlns="http://www.w3.org/2000/svg" xmlns:xlink="http://www.w3.org/1999/xlink" fill="none" version="1.1" width="44" height="44" viewBox="0 0 44 44"><defs><clipPath id="master_svg0_492_6209"><rect x="0" y="0" width="44" height="44" rx="0"/></clipPath></defs><g clip-path="url(#master_svg0_492_6209)"><g><path d="M35.832499999999996,21.34L35.832499999999996,15.3423C35.832499999999996,8.39025,30.3573,2.75,23.4025,2.75C16.44775,2.75,10.81025,8.39025,10.81025,15.3423L10.81025,21.34L8.25,21.34L8.25,41.25L38.392700000000005,41.25L38.392700000000005,21.34L35.832499999999996,21.34ZM25.146,32.141999999999996L25.146,37.6997L21.4967,37.6997L21.4967,32.141999999999996C20.250999999999998,31.4848,19.3985,30.1785,19.3985,28.6743C19.4012,26.5072,21.153,24.75,23.32,24.75C25.4843,24.75,27.2415,26.5072,27.2415,28.6742C27.2415,30.1785,26.3918,31.482,25.146,32.141999999999996ZM32.238299999999995,21.34L14.404499999999999,21.34L14.404499999999999,15.3423C14.404499999999999,10.37575,18.4332,6.3469999999999995,23.3998,6.3469999999999995C28.3662,6.3469999999999995,32.2355,10.37575,32.2355,15.3423L32.2355,21.34L32.238299999999995,21.34Z" fill="#FFFFFF" fill-opacity="1"/></g></g></svg>