<svg xmlns="http://www.w3.org/2000/svg" xmlns:xlink="http://www.w3.org/1999/xlink" fill="none" version="1.1" width="200" height="200" viewBox="0 0 200 200"><defs><clipPath id="master_svg0_10_253"><rect x="0" y="0" width="200" height="200" rx="0"/></clipPath></defs><g clip-path="url(#master_svg0_10_253)"><g style="opacity:0.009999999776482582;"><path d="M20,20L180,20L180,180L20,180L20,20Z" fill="#202425" fill-opacity="1"/></g><g><path d="M136.22969921875,36C136.93569921875002,36.000154114,137.61269921874998,36.28017,138.11169921875,36.778667L178.22969921875,76.896C179.22369921875,77.892,179.27269921875,79.4889,178.34169921875,80.544L102.00009921875,167.067C100.93849921875,168.27,99.06179921875,168.27,98.00009921875,167.067L21.65880721875,80.544C20.72783321875,79.4889,20.77686021875,77.892,21.77080721875,76.896L61.88809921875,36.778668C62.38829921875,36.280017,63.06529921875,36,63.77079921875,36L136.22969921875,36Z" fill="#FFAA44" fill-opacity="1"/></g><g><path d="M97.99442890625,76.3733L63.43979490625,36.885333C63.30163268625,36.728064,63.26825260625,36.504512,63.35444340625,36.313742C63.44063390625,36.122972,63.63045990625,36.000265503,63.83979490625,36L136.15982890625,36C136.36912890625,36.000265503,136.55892890625,36.122972,136.64512890625,36.313742C136.73132890624998,36.504512,136.69792890625,36.728064,136.55982890625,36.885333L102.00512890625001,76.3733C100.94282890625,77.5852,99.05672890625,77.5852,97.99442890625,76.3733Z" fill="#FFE1BC" fill-opacity="1"/></g><g><path d="M59.1572775,79.98401204101563C61.374517499999996,78.04949904101562,64.7395875,78.27622704101563,66.6772775,80.49067204101563L99.9999375,118.57064204101562L133.3172375,80.49067204101563C135.2599375,78.29144904101562,138.6142375,78.07464004101563,140.8238375,80.00547204101562C143.0334375,81.93631204101563,143.2682375,85.28941204101562,141.34923750000002,87.50934204101563L104.0159375,130.17604204101562C101.8908375,132.60784204101563,98.1090375,132.60784204101563,95.9839375,130.17604204101562L58.6506075,87.50934204101563C56.7160915,85.29211204101563,56.9428195,81.92704204101562,59.1572675,79.98934204101562L59.1572775,79.98401204101563Z" fill="#FFFFFF" fill-opacity="1"/></g></g></svg>