<svg xmlns="http://www.w3.org/2000/svg" xmlns:xlink="http://www.w3.org/1999/xlink" fill="none" version="1.1" width="48" height="48" viewBox="0 0 48 48"><defs><clipPath id="master_svg0_492_6227"><rect x="0" y="0" width="48" height="48" rx="0"/></clipPath><linearGradient x1="0.5" y1="0" x2="1" y2="1.0664398670196533" id="master_svg1_492_08880"><stop offset="0%" stop-color="#FF4B00" stop-opacity="1"/><stop offset="100%" stop-color="#FDCBB6" stop-opacity="1"/></linearGradient></defs><g clip-path="url(#master_svg0_492_6227)"><g><path d="M32.0246515625,26.607009375L32.0246515625,42.973209375L35.4638515625,42.973209375L35.4638515625,37.030109375C40.9607515625,37.111709375,43.7476515625,36.867009375,44.5199515625,32.175909375C44.7645515625,30.804109375,44.2752515625,29.264409375,43.6661515625,28.420209375C41.8529515625,25.964309375,36.3991515625,26.573409375,32.0246515625,26.607009375ZM35.4638515625,34.248109375L35.4638515625,29.475409375C38.0156515625,29.393909375,40.7161515625,29.110909375,41.1622515625,31.173409375C41.8961515625,34.622209375,38.3322515625,34.329609375000004,35.4638515625,34.248109375ZM25.4004515625,26.688609375C25.4388515625,32.104009375000004,25.4388515625,37.557809375,25.4820515625,42.973209375L28.8396515625,42.973209375L28.8396515625,26.607009375C27.7076515625,26.655009375,26.5708515625,26.655009375,25.4004515625,26.688609375ZM31.9095515625,4.787109375C26.6092515625,10.077809375000001,21.3233515625,15.330109375,15.9846515625,20.630409375L15.9846515625,4.787109375L3.1728515625,4.787109375C3.2112247625,5.837569375,3.2112247625,6.926409375,3.2543943625,7.981669375L6.3674115625,7.981669375L6.3674115625,42.949209375C19.0977515625,30.209309375,31.7896515625,17.517409375,44.5199515625,4.78711120605L31.9095515625,4.787109375Z" fill="url(#master_svg1_492_08880)" fill-opacity="1"/></g></g></svg>