<svg xmlns="http://www.w3.org/2000/svg" xmlns:xlink="http://www.w3.org/1999/xlink" fill="none" version="1.1" width="52" height="43.0244140625" viewBox="0 0 52 43.0244140625"><g><g><g><path d="M25.7784,21.1829C22.1074,11.8287,13.3243,4.05169,0,0.815781C0,0.815781,0.13597,0,0.13597,0C0.13597,0,17.24,0,17.24,0C19.5514,0.0815774,21.4004,0.81575,22.0531,3.29025C22.0531,3.29025,25.7784,21.1829,25.7784,21.1829C25.7784,21.1829,25.7784,21.1829,25.7784,21.1829Z" fill="#3BB64F" fill-opacity="1"/></g></g><g><g><path d="M51.99996637573242,2.6435367338562012C51.99996637573242,2.6435367338562012,34.62396637573242,43.0243592338562,34.62396637573242,43.0243592338562C34.62396637573242,43.0243592338562,22.958436375732422,43.0243592338562,22.958436375732422,43.0243592338562C22.958436375732422,43.0243592338562,13.087566375732422,9.305679233856202,13.087566375732422,9.305679233856202C20.18480637573242,13.8468592338562,26.221566375732422,21.0528592338562,28.342566375732424,26.056259233856203C28.342566375732424,26.056259233856203,29.51176637573242,30.216559233856202,29.51176637573242,30.216559233856202C29.51176637573242,30.216559233856202,40.307266375732425,2.616359233856201,40.307266375732425,2.616359233856201C40.307266375732425,2.616359233856201,51.99996637573242,2.616359233856201,51.99996637573242,2.616359233856201C51.99996637573242,2.616359233856201,51.99996637573242,2.6435367338562012,51.99996637573242,2.6435367338562012C51.99996637573242,2.6435367338562012,51.99996637573242,2.6435367338562012,51.99996637573242,2.6435367338562012Z" fill="#3BB64F" fill-opacity="1"/></g></g></g></svg>