<svg xmlns="http://www.w3.org/2000/svg" xmlns:xlink="http://www.w3.org/1999/xlink" fill="none" version="1.1" width="68.0751953125" height="53.74267578125" viewBox="0 0 68.0751953125 53.74267578125"><g><g><path d="M61.6896,53.7427C61.6896,53.7427,6.38588,53.7427,6.38588,53.7427C2.87871,53.7427,0,50.8641,0,47.3569C0,47.3569,0,6.38588,0,6.38588C0,2.87873,2.87871,0,6.38588,0C6.38588,0,61.6896,0,61.6896,0C65.1968,0,68.0754,2.87873,68.0754,6.38588C68.0754,6.38588,68.0754,47.3569,68.0754,47.3569C68.0958,50.8842,65.2171,53.7427,61.6896,53.7427C61.6896,53.7427,61.6896,53.7427,61.6896,53.7427Z" fill="#F6C859" fill-opacity="1"/></g><g><g><g><g><path d="M26.21249714172363,46.586383187073466C25.928687141723632,46.586383187073466,25.644877141723633,46.42428318707347,25.502957141723634,46.16068318707347C25.300237141723635,45.77568318707347,25.462417141723634,45.28918318707347,25.847597141723632,45.10658318707347C26.98286714172363,44.51868318707347,28.54386714172363,43.42388318707347,29.435867141723634,41.51838318707347C30.571117141723633,39.10598318707347,30.287307141723634,36.49068318707347,29.800767141723632,36.26768318707347C29.679117141723633,36.20698318707347,29.19258714172363,36.45018318707347,28.908777141723633,36.61238318707347C28.158677141723633,36.997583187073474,27.145047141723634,37.524683187073464,25.948957141723632,37.09888318707347C24.773147141723634,36.693383187073465,24.205517141723632,35.659583187073466,23.941977141723633,35.152683187073464C22.157983141723633,31.888883187073468,21.61061914172363,23.37428318707347,23.495977141723632,19.137383187073468C24.124427141723633,17.73858318707347,24.975867141723633,16.907373187073468,26.03004714172363,16.66410318707347C27.104497141723634,16.42082318707347,27.976227141723633,16.86682318707347,28.685767141723634,17.23168318707347C29.27367714172363,17.53578318707347,29.557487141723634,17.657483187073467,29.739947141723633,17.55608318707347C30.469757141723633,17.110093187073467,30.449487141723633,14.41384318707347,29.435867141723634,12.264933187073469C28.54386714172363,10.35931318707347,26.98286714172363,9.26459318707347,25.847597141723632,8.676683187073468C25.462417141723634,8.47395318707347,25.300237141723635,8.007682187073469,25.502957141723634,7.62250318707347C25.705677141723633,7.23732288707347,26.171967141723634,7.075145187073469,26.557137141723633,7.277871687073469C27.91539714172363,7.9671421870734696,29.760217141723633,9.28486318707347,30.854947141723635,11.57567318707347C31.929397141723634,13.846203187073469,32.43621714172363,17.75878318707347,30.550847141723633,18.89408318707347C29.598027141723634,19.46168318707347,28.685767141723634,18.995483187073468,27.955957141723633,18.63058318707347C27.408597141723632,18.346683187073467,26.88150714172363,18.08318318707347,26.374687141723633,18.204783187073467C25.685407141723633,18.36698318707347,25.19887714172363,19.15758318707347,24.915067141723632,19.80638318707347C23.272976141723632,23.49598318707347,23.739247141723634,31.544183187073468,25.300237141723635,34.42298318707347C25.563787141723633,34.909583187073466,25.888147141723632,35.43658318707347,26.435507141723633,35.639283187073474C26.962597141723634,35.821783187073464,27.469417141723632,35.598783187073465,28.178967141723632,35.233883187073474C28.868217141723633,34.88918318707347,29.638587141723633,34.48378318707347,30.469757141723633,34.88918318707347C32.23347714172363,35.74058318707347,32.11184714172363,39.55188318707347,30.834657141723632,42.24818318707347C29.739947141723633,44.539083187073466,27.895127141723634,45.85668318707347,26.536867141723633,46.54588318707347C26.455777141723633,46.54588318707347,26.334147141723633,46.586383187073466,26.21249714172363,46.586383187073466C26.21249714172363,46.586383187073466,26.21249714172363,46.586383187073466,26.21249714172363,46.586383187073466Z" fill="#7D662D" fill-opacity="1"/></g></g><g><g><path d="M23.840622276306153,20.556481633911133C23.840622276306153,20.556481633911133,9.649757276306152,20.556481633911133,9.649757276306152,20.556481633911133C9.224031276306153,20.556481633911133,8.859122276306152,20.21185163391113,8.859122276306152,19.765852633911134C8.859122276306152,19.319854633911135,9.203759276306153,18.975221633911133,9.649757276306152,18.975221633911133C9.649757276306152,18.975221633911133,23.840622276306153,18.975221633911133,23.840622276306153,18.975221633911133C24.266322276306152,18.975221633911133,24.631222276306154,19.319854633911135,24.631222276306154,19.765852633911134C24.631222276306154,20.21185163391113,24.286622276306154,20.556481633911133,23.840622276306153,20.556481633911133C23.840622276306153,20.556481633911133,23.840622276306153,20.556481633911133,23.840622276306153,20.556481633911133Z" fill="#7D662D" fill-opacity="1"/></g></g><g><g><path d="M23.840622276306153,34.7472841809082C23.840622276306153,34.7472841809082,9.649757276306152,34.7472841809082,9.649757276306152,34.7472841809082C9.224031276306153,34.7472841809082,8.859122276306152,34.4026541809082,8.859122276306152,33.956650180908206C8.859122276306152,33.530925180908206,9.203759276306153,33.1660041809082,9.649757276306152,33.1660041809082C9.649757276306152,33.1660041809082,23.840622276306153,33.1660041809082,23.840622276306153,33.1660041809082C24.266322276306152,33.1660041809082,24.631222276306154,33.5106531809082,24.631222276306154,33.956650180908206C24.631222276306154,34.4026541809082,24.286622276306154,34.7472841809082,23.840622276306153,34.7472841809082C23.840622276306153,34.7472841809082,23.840622276306153,34.7472841809082,23.840622276306153,34.7472841809082Z" fill="#7D662D" fill-opacity="1"/></g></g><g><g><path d="M42.775232004089354,46.586474351501465C42.65358200408936,46.586474351501465,42.531952004089355,46.56627435150146,42.410332004089355,46.50547435150146C41.052052004089354,45.816174351501466,39.207252004089355,44.49837435150147,38.11252400408936,42.20767435150147C36.835348004089354,39.511374351501466,36.71371300408936,35.72037435150146,38.47743200408936,34.848674351501465C39.308612004089355,34.44317435150147,40.078982004089355,34.848674351501465,40.768232004089356,35.193274351501465C41.477782004089356,35.558174351501464,41.98460200408935,35.78117435150146,42.511692004089355,35.59877435150146C43.099602004089355,35.395974351501465,43.444222004089355,34.767574351501466,43.64696200408935,34.38237435150147C45.22821200408936,31.503674351501466,45.694492004089355,23.475714351501466,44.032132004089355,19.765824351501465C43.74832200408935,19.137374351501464,43.261762004089356,18.326464351501464,42.572512004089354,18.164284351501465C42.14678200408935,18.062924351501465,41.883242004089354,17.637204351501467,41.98460200408935,17.211476351501464C42.08596200408935,16.785752351501465,42.511692004089355,16.522205651501466,42.937422004089356,16.623568751501466C43.991592004089355,16.866839351501465,44.84303200408935,17.698014351501463,45.47148200408935,19.117104351501464C47.356812004089356,23.333804351501463,46.809482004089354,31.848274351501466,45.02549200408936,35.132474351501465C44.761942004089356,35.63927435150147,44.174052004089354,36.67327435150146,43.01851200408936,37.078574351501466C41.82241200408936,37.484174351501466,40.808792004089355,36.977274351501464,40.05869200408935,36.592074351501466C39.774882004089356,36.45017435150146,39.28834200408936,36.206974351501465,39.16670200408936,36.24747435150147C38.70043200408936,36.47057435150147,38.396342004089355,39.08567435150147,39.53160200408936,41.498074351501465C40.423602004089354,43.40377435150147,41.98460200408935,44.49837435150147,43.11987200408936,45.086274351501466C43.505042004089354,45.289174351501465,43.66723200408936,45.755374351501466,43.46451200408936,46.14057435150146C43.32259200408936,46.42427435150147,43.059042004089356,46.586474351501465,42.775232004089354,46.586474351501465C42.775232004089354,46.586474351501465,42.775232004089354,46.586474351501465,42.775232004089354,46.586474351501465Z" fill="#7D662D" fill-opacity="1"/></g></g><g><g><path d="M39.61265851898193,17.41423804016113C39.28829951898194,17.41423804016113,38.98420451898193,17.211438040161134,38.86257051898193,16.86682804016113C37.179938518981935,11.798678040161132,41.133108518981935,7.886049040161133,42.41026851898194,7.237325040161132C42.795468518981934,7.034599040161133,43.281998518981936,7.196783740161133,43.46444851898193,7.581964040161132C43.66718851898193,7.967143040161133,43.50500851898193,8.453678040161133,43.119838518981936,8.636138040161132C42.552188518981936,8.919948040161133,38.92339051898193,12.041928040161132,40.36274851898193,16.360008040161134C40.50464851898193,16.76546804016113,40.281658518981935,17.211438040161134,39.85592851898193,17.353338040161134C39.77483851898193,17.39393804016113,39.693748518981934,17.41423804016113,39.61265851898193,17.41423804016113C39.61265851898193,17.41423804016113,39.61265851898193,17.41423804016113,39.61265851898193,17.41423804016113Z" fill="#7D662D" fill-opacity="1"/></g></g><g><g><path d="M59.317711204528806,20.556481633911133C59.317711204528806,20.556481633911133,45.126842204528806,20.556481633911133,45.126842204528806,20.556481633911133C44.70111620452881,20.556481633911133,44.33621120452881,20.21185163391113,44.33621120452881,19.765852633911134C44.33621120452881,19.319854633911135,44.68084420452881,18.975221633911133,45.126842204528806,18.975221633911133C45.126842204528806,18.975221633911133,59.317711204528806,18.975221633911133,59.317711204528806,18.975221633911133C59.74341120452881,18.975221633911133,60.10831120452881,19.319854633911135,60.10831120452881,19.765852633911134C60.10831120452881,20.21185163391113,59.76371120452881,20.556481633911133,59.317711204528806,20.556481633911133C59.317711204528806,20.556481633911133,59.317711204528806,20.556481633911133,59.317711204528806,20.556481633911133Z" fill="#7D662D" fill-opacity="1"/></g></g><g><g><path d="M59.317711204528806,34.7472841809082C59.317711204528806,34.7472841809082,45.126842204528806,34.7472841809082,45.126842204528806,34.7472841809082C44.70111620452881,34.7472841809082,44.33621120452881,34.4026541809082,44.33621120452881,33.956650180908206C44.33621120452881,33.530925180908206,44.68084420452881,33.1660041809082,45.126842204528806,33.1660041809082C45.126842204528806,33.1660041809082,59.317711204528806,33.1660041809082,59.317711204528806,33.1660041809082C59.74341120452881,33.1660041809082,60.10831120452881,33.5106531809082,60.10831120452881,33.956650180908206C60.10831120452881,34.4026541809082,59.76371120452881,34.7472841809082,59.317711204528806,34.7472841809082C59.317711204528806,34.7472841809082,59.317711204528806,34.7472841809082,59.317711204528806,34.7472841809082Z" fill="#7D662D" fill-opacity="1"/></g></g></g></g></g></svg>