<svg xmlns="http://www.w3.org/2000/svg" xmlns:xlink="http://www.w3.org/1999/xlink" fill="none" version="1.1" width="44.00000229442935" height="44.000002294429294" viewBox="0 0 44.00000229442935 44.000002294429294"><defs><clipPath id="master_svg0_832_05404"><rect x="44" y="44.000002294429294" width="44" height="44" rx="0"/></clipPath></defs><g transform="matrix(-1,-5.2146120310681e-8,5.2146120310681e-8,-1,87.99999770557059,88.00000688328788)" clip-path="url(#master_svg0_832_05404)"><g><path d="M71.9464578125,50.49623229442929C72.6018578125,49.83707729442929,73.6671578125,49.83429929442929,74.32635781249999,50.489707294429294C74.9854578125,51.145152294429295,74.9882578125,52.21089229442929,74.3328578125,52.86960229442929L60.0530378125,67.1871022944293C59.3975978125,67.84620229442929,58.3320778125,67.8490022944293,57.6728878125,67.1936022944293C57.0139908125,66.5382022944293,57.0109538125,65.47240229442929,57.6663938125,64.81330229442929L71.9464578125,50.49623229442929Z" fill="#595757" fill-opacity="1"/></g><g><path d="M74.3328578125,79.1299968256793C74.9882578125,79.7890968256793,74.9855578125,80.85489682567929,74.32635781249999,81.51029682567929C73.6671578125,82.1657968256793,72.6018578125,82.1629968256793,71.9464578125,81.5037968256793L57.6663938125,67.1867968256793C57.0109538125,66.5276768256793,57.0139908125,65.46189682567929,57.6728878125,64.80645682567929C58.3320778125,64.1510158256793,59.3975978125,64.1542468256793,60.0530378125,64.8129828256793L74.3328578125,79.1299968256793Z" fill="#595757" fill-opacity="1"/></g></g></svg>