<svg xmlns="http://www.w3.org/2000/svg" xmlns:xlink="http://www.w3.org/1999/xlink" fill="none" version="1.1" width="39.526668548583984" height="24.200000762939453" viewBox="0 0 39.526668548583984 24.200000762939453"><g><path d="M39.5267,12.1C39.5267,15.921,31.4096,24.2,19.7633,24.2C8.47,24.2,0,16.1333,0,12.1C0,8.06667,8.47,0,19.7633,0C31.4802,0,39.5267,8.06667,39.5267,12.1ZM19.7633,2.19358C14.5402,2.19358,10.2346,6.58075,10.2346,12.0292C10.2346,17.4779,14.4696,21.8649,19.7633,21.8649C24.9865,21.8649,29.2921,17.4777,29.2921,12.0291C29.2921,6.58075,25.0571,2.19358,19.7633,2.19358ZM19.7633,5.80232C16.4459,5.80232,13.6932,8.6328,13.6932,12.1C13.6932,15.5672,16.3753,18.3975,19.7633,18.3975C23.1513,18.3975,25.8335,15.5672,25.8335,12.1C25.8335,8.6328,23.0808,5.8025,19.7633,5.80232L19.7633,5.80232Z" fill="#FFFFFF" fill-opacity="1"/></g></svg>